<?xml version="1.0" encoding="UTF-8" standalone="no"?>
<!-- Created with Inkscape (http://www.inkscape.org/) -->

<svg
   version="1.1"
   id="svg2"
   width="762.96881"
   height="763.12152"
   viewBox="0 0 762.96882 763.12151"
   sodipodi:docname="CUPID_Logo.svg"
   inkscape:version="1.1.1 (1:1.1+202109281944+c3084ef5ed)"
   xmlns:inkscape="http://www.inkscape.org/namespaces/inkscape"
   xmlns:sodipodi="http://sodipodi.sourceforge.net/DTD/sodipodi-0.dtd"
   xmlns="http://www.w3.org/2000/svg"
   xmlns:svg="http://www.w3.org/2000/svg">
  <defs
     id="defs6" />
  <sodipodi:namedview
     id="namedview4"
     pagecolor="#ffffff"
     bordercolor="#666666"
     borderopacity="1.0"
     inkscape:pageshadow="2"
     inkscape:pageopacity="0"
     inkscape:pagecheckerboard="true"
     showgrid="false"
     inkscape:zoom="0.34591194"
     inkscape:cx="784.88183"
     inkscape:cy="381.60001"
     inkscape:window-width="1366"
     inkscape:window-height="708"
     inkscape:window-x="0"
     inkscape:window-y="0"
     inkscape:window-maximized="1"
     inkscape:current-layer="layer1" />
  <g
     inkscape:groupmode="layer"
     id="layer1"
     inkscape:label="Image 1"
     style="display:inline"
     sodipodi:insensitive="true"
     transform="translate(-411.16005,-381.48746)">
    <g
       id="g1281">
      <path
         style="fill:#f3e8d0;stroke-width:0.32"
         d="m 781.12,1144.4248 c -73.86762,-2.3077 -144.01213,-25.2148 -204.48,-66.777 -47.01059,-32.3125 -86.65933,-75.27 -114.96128,-124.55535 C 431.55027,900.6265 414.71536,843.32464 411.53037,782.4 c -0.71907,-13.7543 -0.35933,-36.48666 0.80515,-50.88 6.58829,-81.4336 39.36026,-158.57194 93.56918,-220.24205 81.6,-92.83126 201.67533,-140.11011 324.8153,-127.89382 54.13802,5.37081 106.10691,22.14259 153.09693,49.40848 73.41377,42.59824 130.93337,108.82054 162.60517,187.20739 23.4698,58.08694 32.1879,120.82381 25.5471,183.84 -4.1517,39.39677 -14.1396,76.64496 -30.6758,114.4 -2.6318,6.00883 -11.1611,23.11962 -14.5954,29.28 -11.6169,20.8383 -25.8411,41.64483 -40.4716,59.2 -13.6775,16.4116 -30.4214,33.3399 -46.7068,47.2211 -71.56107,60.9967 -164.17515,93.4273 -258.3996,90.4837 z"
         id="path1299" />
      <path
         style="fill:#e2d9c4;stroke-width:0.32"
         d="m 539.52,943.78278 c -27.36554,-2.80502 -45.89658,-17.65033 -51.66349,-41.38787 -1.13568,-4.67465 -1.63888,-8.8296 -1.14189,-9.42845 0.34858,-0.41996 2.09866,-0.48646 12.80538,-0.48646 9.53699,0 12.47568,0.0924 12.72224,0.4 0.17632,0.22 0.70768,1.768 1.18077,3.44 0.96118,3.39693 3.33133,8.61485 5.19024,11.42634 2.9479,4.45852 7.69968,8.51228 12.66976,10.8086 10.2176,4.72084 25.89702,4.50964 35.96121,-0.48438 5.41165,-2.68531 9.20816,-6.75558 10.71488,-11.48749 0.92468,-2.90384 0.94183,-7.71654 0.0374,-10.50246 -2.22201,-6.8449 -9.3038,-11.81507 -21.09126,-14.80234 -2.08189,-0.52761 -9.35907,-2.03971 -16.17149,-3.36022 -15.65664,-3.03488 -21.74137,-4.83405 -28.65635,-8.47319 -4.54243,-2.39056 -7.25754,-4.32777 -10.7103,-7.64185 -5.2607,-5.04938 -8.424,-10.62803 -10.09484,-17.80301 -0.69796,-2.99715 -0.82004,-4.28051 -0.82196,-8.64 -0.003,-5.76118 0.43917,-8.41373 2.17098,-13.03741 5.63018,-15.03193 22.90259,-25.83539 44.94589,-28.11254 7.67238,-0.79258 19.67459,0.006 26.59283,1.77011 6.51542,1.66109 13.61085,4.83539 18.38579,8.22531 5.97239,4.24 11.32231,10.57863 14.7376,17.46119 2.72061,5.48262 5.4368,14.38041 4.8537,15.89996 -0.18067,0.47085 -1.40499,0.5128 -12.76083,0.43709 l -12.561,-0.0837 -0.30636,-0.96 c -2.8346,-8.88211 -7.25709,-14.16909 -14.74711,-17.6297 -9.10221,-4.20547 -23.22979,-4.42304 -32.68521,-0.50336 -8.52884,3.53559 -12.88954,10.15015 -11.70682,17.7576 0.66666,4.28816 2.54874,7.44314 5.98813,10.03796 4.61363,3.48073 8.03117,4.57248 23.84211,7.6166 13.63418,2.62503 20.80557,4.32666 26.48736,6.285 19.10931,6.58636 28.9376,16.75971 31.25248,32.34969 1.96643,13.24317 -1.97779,25.48915 -11.10797,34.48803 -3.92765,3.87114 -7.76877,6.57418 -13.19187,9.28327 -7.23517,3.6143 -15.75091,6.04739 -24.54739,7.0136 -2.84832,0.31286 -13.92205,0.39577 -16.57261,0.12409 z m 238.24,-0.11632 c -11.54922,-1.1407 -21.04,-4.08304 -28,-8.68054 -2.77738,-1.83466 -7.04346,-5.94525 -9.27114,-8.93325 -6.03635,-8.09664 -9.56966,-20.02397 -10.56163,-35.65267 -0.19347,-3.04832 -0.32541,-22.93997 -0.32611,-49.16083 0,-36.84467 0.0703,-44.1001 0.43613,-44.40368 0.31366,-0.26032 4.04489,-0.33923 13.2,-0.2792 L 756,796.64 l 0.18317,46.56 c 0.19069,48.46858 0.2,48.79213 1.60486,55.77674 3.21341,15.97628 12.83184,22.94956 31.64359,22.94137 18.68819,-0.008 28.63008,-7.98963 31.48691,-25.27811 1.06489,-6.44426 1.15488,-10.72381 1.15817,-55.08083 0.003,-37.11123 0.0748,-44.4201 0.44055,-44.72368 0.31366,-0.26032 4.04489,-0.33923 13.2,-0.2792 l 12.76275,0.0837 0.0991,44.96 c 0.069,31.29894 -0.0112,46.4671 -0.26368,49.92 -1.62646,22.23757 -8.71488,36.6273 -21.96272,44.5849 -5.75596,3.45747 -12.70016,5.68707 -22.1927,7.12556 -3.9457,0.59796 -21.77866,0.89245 -26.4,0.436 z M 649.98758,941.05958 C 649.68685,940.75885 649.6,927.02467 649.6,879.776 V 818.88 h -22.176 c -16.82134,0 -22.26874,-0.0927 -22.56,-0.384 -0.54963,-0.54963 -0.54963,-21.08237 0,-21.632 0.55862,-0.55862 115.79338,-0.55862 116.352,0 0.50147,0.50147 0.55069,20.46659 0.0527,21.39702 -0.32266,0.60292 -0.91239,0.61898 -22.71917,0.61898 h -22.38794 l -0.0808,61.2 -0.0808,61.2 -12.81242,0.0836 c -9.69833,0.0632 -12.90665,-0.0106 -13.2,-0.304 z m 220.81242,0.016 c -0.3176,-0.32038 -0.4,-15.17936 -0.4,-72.14032 0,-61.90208 0.0629,-71.78899 0.45878,-72.11756 0.62503,-0.51872 51.736,-0.27149 56.18122,0.27174 16.72755,2.04422 28.44659,5.83574 38.4,12.42378 4.88445,3.23292 11.43674,9.71539 14.48122,14.32688 7.86435,11.91222 11.42697,25.86972 11.4351,44.8 0.007,16.38166 -2.23821,27.66003 -7.7081,38.72 -2.82841,5.71894 -5.62908,9.65385 -10.04723,14.11619 -10.65043,10.75693 -24.11587,16.43245 -45.60099,19.22022 -5.38109,0.69824 -56.54742,1.03731 -57.2,0.37907 z m 43.7857,-21.3926 c 3.79814,-0.16976 8.45004,-0.52548 10.3376,-0.79044 23.0879,-3.24096 34.76576,-14.9 38.15398,-38.09244 0.6928,-4.74215 0.79894,-17.93104 0.18157,-22.56 -2.29104,-17.17808 -8.73821,-27.81626 -20.53885,-33.89034 -8.66979,-4.46253 -16.91565,-5.93085 -35.48346,-6.3184 L 896.96,817.81686 v 51.09162 51.09162 l 5.36,-0.004 c 2.948,-0.003 8.46755,-0.14311 12.2657,-0.3129 z m 120.0419,21.3767 c -0.2975,-0.2975 -0.3876,-6.85437 -0.3876,-28.20918 v -27.8216 l -25.6346,-43.79994 c -21.25324,-36.31382 -25.56729,-43.88102 -25.24079,-44.2744 0.33737,-0.40653 2.47065,-0.47446 14.89568,-0.47446 10.97801,0 14.56491,0.094 14.76081,0.38662 0.1424,0.21267 8.0349,14.34563 17.5389,31.40666 9.504,17.06099 17.4189,31.01664 17.5886,31.01257 0.1698,-0.004 8.1618,-13.74873 17.76,-30.54368 9.5983,-16.79491 17.7077,-30.92601 18.0209,-31.40246 l 0.5695,-0.86621 14.4705,0.0832 14.4705,0.0833 -0.023,0.8 c -0.013,0.46204 -11.1309,19.29574 -26.3182,44.58467 l -26.2949,43.78467 -0.082,27.73533 -0.082,27.73533 -12.8124,0.0836 c -9.6984,0.0632 -12.9067,-0.0106 -13.2,-0.304 z M 568.32,745.38278 c -9.20186,-0.9432 -17.54819,-3.34995 -24.96925,-7.20016 -4.90214,-2.54332 -8.95987,-5.4704 -13.17078,-9.50089 -14.56941,-13.94509 -22.01258,-35.51715 -21.26871,-61.64173 0.36567,-12.84208 2.49079,-23.23706 6.83079,-33.41302 4.93472,-11.57034 13.64873,-21.92384 23.69789,-28.15652 7.37363,-4.57328 15.62505,-7.54864 25.52006,-9.20224 4.9321,-0.82419 19.29891,-0.82707 23.98627,-0.005 12.02071,2.1088 21.29773,6.22797 29.45373,13.07792 9.15334,7.68762 15.53306,18.553 18.92643,32.23396 1.18211,4.76585 1.19754,4.90262 0.60221,5.33792 -0.89987,0.65801 -24.232,0.66156 -24.77789,0.004 -0.20221,-0.24362 -0.73139,-1.71962 -1.17597,-3.28 -1.095,-3.8433 -3.85094,-9.40864 -6.20838,-12.53719 -6.66106,-8.83987 -16.66739,-13.4751 -29.1264,-13.49222 -10.28528,-0.0141 -18.44675,3.21155 -25.61866,10.12528 -7.35996,7.09504 -11.93059,16.93712 -13.94444,30.0271 -0.83188,5.40717 -0.83696,19.48375 -0.009,24.8 2.91027,18.68531 10.78473,31.30221 23.37411,37.45123 4.58006,2.23706 8.53113,3.1912 14.15206,3.41757 19.27239,0.7761 33.06026,-8.83833 37.90871,-26.43411 0.36899,-1.33907 0.9023,-2.61469 1.18518,-2.83469 0.39037,-0.30361 3.38186,-0.4 12.41395,-0.4 10.43751,0 11.95104,0.0619 12.31783,0.50387 0.92595,1.11572 -2.2624,11.96839 -5.4505,18.55271 -8.9681,18.52147 -25.39302,29.74528 -47.27507,32.30496 -3.68819,0.43142 -14.17552,0.58912 -17.37424,0.26125 z m 132.32,-0.11632 c -11.54922,-1.1407 -21.04,-4.08304 -28,-8.68054 -2.77738,-1.83466 -7.04346,-5.94525 -9.27114,-8.93325 C 657.33251,719.55603 653.7992,707.6287 652.80723,692 c -0.19347,-3.04832 -0.32541,-22.93997 -0.32611,-49.16083 0,-36.84467 0.0703,-44.1001 0.43613,-44.40368 0.31366,-0.26032 4.04489,-0.33923 13.2,-0.2792 l 12.76275,0.0837 0.18317,46.56 c 0.19069,48.46858 0.2,48.79213 1.60486,55.77674 3.21341,15.97628 12.83184,22.94956 31.64359,22.94137 18.68819,-0.008 28.63008,-7.98963 31.48691,-25.27811 1.06489,-6.44426 1.15488,-10.72381 1.15817,-55.08083 0.003,-37.11123 0.0748,-44.4201 0.44055,-44.72368 0.31366,-0.26032 4.04489,-0.33923 13.2,-0.2792 l 12.76275,0.0837 0.0991,44.96 c 0.069,31.29894 -0.0112,46.4671 -0.26368,49.92 -1.62646,22.23757 -8.71488,36.6273 -21.96272,44.5849 -5.75596,3.45747 -12.70016,5.68707 -22.1927,7.12556 -3.9457,0.59796 -21.77866,0.89245 -26.4,0.436 z m 93.024,-2.61046 c -0.29638,-0.29638 -0.384,-16.75219 -0.384,-72.12083 0,-61.76154 0.0635,-71.78954 0.45686,-72.11597 0.34762,-0.28848 7.9049,-0.34794 31.6,-0.24861 33.66992,0.14115 33.94925,0.15405 43.00154,1.98691 19.37072,3.92215 30.23203,13.92948 33.71507,31.06426 1.02077,5.02154 1.42035,11.86032 1.0032,17.16944 -0.93241,11.86723 -4.33766,19.99155 -11.10867,26.5033 -5.84029,5.61664 -12.85456,9.079 -22.92954,11.31846 -8.94051,1.9873 -15.10547,2.42704 -34.02492,2.42704 H 819.84 v 26.816 c 0,20.43021 -0.0915,26.90746 -0.384,27.2 -0.28557,0.28557 -3.5911,0.384 -12.896,0.384 -9.3049,0 -12.61043,-0.0984 -12.896,-0.384 z m 61.96627,-76.71072 c 11.24938,-1.85206 16.91891,-6.12048 19.16039,-14.42528 0.81289,-3.01181 0.79644,-12.36426 -0.0272,-15.52 -2.47322,-9.47494 -9.22288,-14.37206 -21.8034,-15.81914 -1.76,-0.20243 -9.932,-0.45552 -18.16,-0.5624 l -14.96,-0.19433 v 23.59283 23.59283 l 16.72,-0.13878 c 10.91568,-0.0906 17.53591,-0.27312 19.07028,-0.52573 z M 914.624,742.656 c -0.55901,-0.55901 -0.55901,-143.63299 0,-144.192 0.28557,-0.28557 3.5911,-0.384 12.896,-0.384 9.3049,0 12.61043,0.0984 12.896,0.384 0.55901,0.55901 0.55901,143.63299 0,144.192 -0.28557,0.28557 -3.5911,0.384 -12.896,0.384 -9.3049,0 -12.61043,-0.0984 -12.896,-0.384 z m 50.576,0.0195 c -0.3176,-0.32038 -0.4,-15.17936 -0.4,-72.14032 0,-61.90208 0.0629,-71.78899 0.45878,-72.11757 0.62503,-0.51872 51.73602,-0.27149 56.18122,0.27175 16.7276,2.04422 28.4466,5.83574 38.4,12.42377 4.8844,3.23293 11.4367,9.71539 14.4812,14.32688 7.8644,11.91223 11.427,25.86973 11.4351,44.8 0.01,16.38167 -2.2382,27.66003 -7.7081,38.72 -2.8284,5.71895 -5.6291,9.65386 -10.0472,14.11619 -10.6504,10.75693 -24.1159,16.43245 -45.601,19.22023 -5.3811,0.69824 -56.54742,1.03731 -57.2,0.37907 z m 43.7857,-21.39261 c 3.7981,-0.16976 8.45,-0.52547 10.3376,-0.79043 23.0879,-3.24096 34.7658,-14.9 38.154,-38.09245 0.6928,-4.74214 0.7989,-17.93104 0.1815,-22.56 -2.291,-17.17808 -8.7382,-27.81625 -20.5388,-33.89033 -8.6698,-4.46253 -16.9156,-5.93085 -35.4835,-6.3184 L 991.36,619.4168 v 51.09162 51.09161 l 5.36,-0.004 c 2.948,-0.003 8.4676,-0.1431 12.2657,-0.31289 z"
         id="path1297" />
      <path
         style="fill:#cec8b6;stroke-width:0.32"
         d="m 536.48,943.17946 c -22.32973,-3.03271 -38.64445,-14.74816 -45.89792,-32.95888 -2.18256,-5.47962 -4.37149,-15.31156 -3.7623,-16.89904 0.1848,-0.48154 1.33024,-0.52148 12.77161,-0.44525 l 12.56861,0.0837 0.7351,2.4 c 2.49997,8.16179 4.93796,12.55306 9.5049,17.12 4.38662,4.38662 8.60163,6.77779 14.6425,8.30662 11.63833,2.94548 25.05433,1.26695 33.21014,-4.15504 5.68218,-3.77747 8.62736,-9.07593 8.62736,-15.52073 0,-5.80071 -2.42442,-10.30045 -7.48218,-13.88704 -5.69065,-4.03539 -11.34508,-5.81037 -29.63782,-9.30352 -6.072,-1.15952 -12.62403,-2.52624 -14.56006,-3.03719 -11.73847,-3.09801 -19.70218,-7.28544 -26.09834,-13.72288 -4.41578,-4.44432 -6.87459,-8.2783 -8.59882,-13.40812 -1.45081,-4.31632 -1.73465,-6.3712 -1.73379,-12.5521 0,-5.39642 0.0762,-6.20301 0.85338,-9.12 1.08989,-4.09069 3.41958,-8.88461 5.94083,-12.22451 7.50605,-9.94339 21.61664,-17.0881 37.82224,-19.15075 6.04874,-0.76989 18.34163,-0.52186 23.97456,0.48374 19.92138,3.55638 33.61037,14.48602 40.09331,32.01152 1.33027,3.5961 2.91722,9.76989 2.63059,10.2337 -0.13145,0.21267 -4.53177,0.3263 -12.6367,0.3263 h -12.43501 l -0.70646,-2.16 c -0.38855,-1.188 -1.36509,-3.456 -2.17011,-5.04 -1.19552,-2.35232 -2.02362,-3.4409 -4.51965,-5.94131 -2.7521,-2.7569 -3.42192,-3.24163 -6.73597,-4.87485 -11.6312,-5.732 -28.28182,-5.25162 -38.10816,1.09946 -6.74336,4.35843 -9.38771,11.64928 -6.84202,18.86451 1.57181,4.45501 5.41904,7.97696 11.45786,10.48912 3.31667,1.37974 5.97197,2.01014 18.38285,4.36438 6.11021,1.15904 13.19747,2.61706 15.74947,3.23997 28.64675,6.99261 41.59206,19.93734 41.59872,41.5968 0.003,6.71062 -1.2032,12.10214 -3.92589,17.56192 -6.92893,13.89446 -22.85181,23.55635 -43.22185,26.22662 -4.71354,0.61789 -16.91863,0.61383 -21.49098,-0.007 z m 239.2,-0.005 c -10.39264,-1.12797 -19.43072,-4.08144 -26.00554,-8.49815 -2.99251,-2.01024 -8.19648,-7.36694 -10.29696,-10.5992 -5.28188,-8.12784 -8.16969,-18.50269 -9.15123,-32.87731 -0.22067,-3.23174 -0.30515,-20.51437 -0.24249,-49.6 L 730.08,796.96 H 743.04 756 l 0.16637,47.84 0.1664,47.84 0.74518,4 c 1.72637,9.26666 4.51805,14.91066 9.47379,19.15341 2.13815,1.83056 7.35783,4.32214 10.72826,5.12109 5.70243,1.35174 12.86701,1.67568 18.88,0.85366 15.50378,-2.11942 22.78538,-10.15405 25.50013,-28.13722 0.47565,-3.15088 0.55654,-8.7967 0.71795,-50.11094 L 822.56,796.96 h 12.96 12.96 l -0.003,45.76 c -0.003,48.00474 -0.0317,49.14746 -1.45581,58.04893 -4.21558,26.34985 -17.91757,39.32752 -44.78131,42.41395 -5.43613,0.62458 -20.77331,0.61981 -26.56,-0.008 z m -125.60986,-2.45101 c -0.0839,-0.22202 -0.188,-27.76365 -0.23136,-61.20365 l -0.0788,-60.8 -22.4,-0.16 -22.4,-0.16 v -10.72 -10.72 h 58.08 58.08 v 10.72 10.72 l -22.47917,0.0822 -22.4792,0.0821 -0.0808,61.19786 L 676,940.96 l -12.88864,0.0836 c -10.14038,0.0658 -12.92118,-0.003 -13.04122,-0.32 z m 220.8048,0.0147 c -0.0874,-0.23008 -0.12208,-32.67431 -0.077,-72.09831 l 0.082,-71.68 24,-0.0968 c 24.94333,-0.10058 29.40522,0.0469 37.76,1.24851 14.21299,2.04403 26.1903,6.56589 35.08976,13.24761 3.5679,2.67876 9.59482,8.95511 11.87475,12.36618 7.10055,10.62326 10.61047,22.62301 11.43197,39.08362 0.66259,13.27683 -0.77546,26.11632 -4.02397,35.92729 -7.27142,21.96093 -23.15795,34.95184 -49.09251,40.14455 -9.90227,1.98262 -10.77312,2.02953 -40.08301,2.15804 -21.85625,0.0958 -26.83238,0.0404 -26.96205,-0.30073 z M 923.36,919.37981 c 4.30064,-0.59658 9.12643,-1.63424 12.2913,-2.64295 16.20009,-5.16332 25.21673,-17.02912 27.67267,-36.41686 1.13699,-8.97578 0.91961,-18.37338 -0.61866,-26.74637 -3.54413,-19.29094 -14.30057,-30.23782 -33.42531,-34.01702 -6.34259,-1.25335 -9.11728,-1.44688 -20.96,-1.46195 l -11.52,-0.0147 -0.0822,50.56 c -0.0452,27.808 -0.007,50.75654 0.0841,50.99676 0.13795,0.3624 2.19405,0.40794 12.08217,0.26746 6.55376,-0.0931 13.06794,-0.32909 14.47594,-0.52442 z m 111.4169,21.53043 c -0.1193,-0.1193 -0.2169,-12.65606 -0.2169,-27.85946 0,-24.81792 -0.053,-27.74467 -0.5167,-28.64176 -0.2842,-0.54953 -11.8099,-20.29555 -25.6128,-43.88003 -13.80282,-23.58445 -25.02228,-43.07312 -24.93207,-43.30813 0.13411,-0.3495 2.82951,-0.41216 14.80112,-0.34409 l 14.63715,0.0832 17.4517,31.43299 c 9.5984,17.28813 17.5956,31.38861 17.7716,31.33434 0.176,-0.0542 8.384,-14.19911 18.24,-31.43299 l 17.92,-31.33434 14.48,-0.0833 c 14.0967,-0.0811 14.48,-0.067 14.48,0.53142 0,0.33808 -11.772,20.17552 -26.16,44.08326 l -26.16,43.46858 -0.16,28 -0.16,28 -12.8231,0.0836 c -7.0527,0.046 -12.9207,-0.0141 -13.04,-0.13334 z M 565.36806,744.78973 C 551.07952,742.8415 539.61939,737.5209 530.29251,728.50518 519.12938,717.7145 512.60342,703.64762 509.86819,684.48 c -0.45526,-3.1905 -0.56963,-6.10474 -0.56502,-14.4 0.005,-9.16477 0.091,-10.9511 0.72358,-15.04 2.20528,-14.25539 6.77261,-25.72714 14.07815,-35.36 1.95846,-2.58234 6.74339,-7.4904 9.4951,-9.73939 8.26733,-6.75696 18.05174,-11.0905 29.76,-13.18077 4.79373,-0.85581 17.47626,-1.2016 22.62125,-0.61677 27.23414,3.09568 45.98217,20.49165 51.80557,48.06947 0.64611,3.05978 1.64342,2.82746 -12.1376,2.82746 -9.31892,0 -12.2058,-0.0927 -12.45418,-0.4 -0.17782,-0.22 -0.6209,-1.49363 -0.98458,-2.8303 -2.18803,-8.0418 -7.61081,-15.96208 -13.77123,-20.11364 -6.52819,-4.39939 -15.21984,-6.73081 -23.55923,-6.31945 -9.62637,0.47481 -17.25226,3.68902 -23.88358,10.06659 -9.23028,8.87706 -14.25962,22.30915 -14.88596,39.7568 -0.60227,16.77648 3.33072,31.7911 10.99136,41.96067 9.43284,12.52221 24.30272,17.36455 40.63242,13.23184 7.76371,-1.96483 14.77267,-6.64589 19.15418,-12.79251 1.84643,-2.59027 4.05366,-7.0911 5.10022,-10.4 0.47318,-1.496 1.0353,-3.224 1.24915,-3.84 l 0.3888,-1.12 H 625.93331 638.24 l 0.1001,0.8679 c 0.14012,1.21517 -1.96794,9.0377 -3.47277,12.88653 -8.27136,21.15543 -25.90867,34.36275 -49.33472,36.94327 -4.20826,0.46358 -16.33203,0.37462 -20.16455,-0.14797 z M 698.56,744.77466 c -10.39264,-1.12797 -19.43072,-4.08144 -26.00554,-8.49815 -2.99251,-2.01024 -8.19648,-7.36694 -10.29696,-10.5992 -5.28188,-8.12784 -8.16969,-18.50269 -9.15123,-32.87731 -0.22067,-3.23174 -0.30515,-20.51437 -0.24249,-49.6 l 0.0962,-44.64 h 12.96 12.96 l 0.16637,47.84 0.1664,47.84 0.74518,4 c 1.72637,9.26666 4.51805,14.91066 9.47379,19.15341 2.13815,1.83056 7.35783,4.32214 10.72826,5.12109 5.70243,1.35174 12.86701,1.67568 18.88,0.85366 15.50378,-2.11942 22.78538,-10.15405 25.50013,-28.13722 0.47565,-3.15088 0.55654,-8.7967 0.71795,-50.11094 L 745.44,598.56 h 12.96 12.96 l -0.003,45.76 c -0.003,48.00474 -0.0317,49.14746 -1.45581,58.04893 -4.21558,26.34985 -17.91757,39.32752 -44.78131,42.41395 -5.43613,0.62458 -20.77331,0.61981 -26.56,-0.008 z m 95.18934,-2.45098 c -0.0843,-0.22202 -0.11648,-32.65968 -0.0714,-72.08368 l 0.082,-71.68 28.64,-0.0966 c 33.78163,-0.11395 38.47696,0.11949 48.16,2.39427 18.31139,4.30176 28.43894,14.49239 31.58566,31.78234 0.54624,3.00141 0.67261,5.00768 0.68519,10.88 0.0173,8.0343 -0.38989,11.25789 -2.10135,16.64 -1.81507,5.70794 -4.10716,9.56608 -8.2391,13.86842 -5.90829,6.1519 -13.91635,10.08512 -25.1304,12.34297 -7.73597,1.55757 -10.29286,1.72442 -29.44,1.92119 l -18.24,0.18742 -0.16,27.04 -0.16,27.04 -12.72864,0.0837 c -10.01197,0.0658 -12.76138,-0.003 -12.88202,-0.32 z M 851.68,666.54093 c 13.97773,-1.21015 20.67101,-5.50288 23.26422,-14.92045 0.57792,-2.09875 0.68733,-3.34877 0.68106,-7.78048 -0.009,-6.01507 -0.53568,-8.68611 -2.49456,-12.64 -2.95178,-5.95798 -8.37398,-9.29408 -17.77072,-10.93373 -2.95882,-0.51625 -5.28944,-0.58627 -19.52,-0.58627 h -16.16 l -0.0828,23.2 c -0.0455,12.76 -0.0141,23.38 0.07,23.6 0.1951,0.51094 26.24246,0.56051 32.01283,0.0609 z m 63.02934,75.78275 c -0.0843,-0.22202 -0.11648,-32.65968 -0.0714,-72.08368 l 0.082,-71.68 h 12.8 12.8 v 72 72 l -12.72864,0.0837 c -10.01197,0.0658 -12.76138,-0.003 -12.88202,-0.32 z m 50.5656,0.0147 c -0.0874,-0.23008 -0.12208,-32.6743 -0.077,-72.0983 l 0.082,-71.68 24,-0.0968 c 24.94326,-0.10058 29.40516,0.0469 37.75996,1.24851 14.213,2.04403 26.1903,6.56589 35.0898,13.24762 3.5679,2.67875 9.5948,8.9551 11.8747,12.36617 7.1006,10.62327 10.6105,22.62301 11.432,39.08362 0.6626,13.27683 -0.7755,26.11632 -4.024,35.92729 -7.2714,21.96093 -23.1579,34.95184 -49.0925,40.14455 -9.9023,1.98262 -10.7731,2.02953 -40.08297,2.15805 -21.85625,0.0958 -26.83238,0.0403 -26.96205,-0.30074 z M 1017.76,720.97981 c 4.3006,-0.59658 9.1264,-1.63424 12.2913,-2.64295 16.2001,-5.16332 25.2167,-17.02912 27.6727,-36.41686 1.137,-8.97578 0.9196,-18.37338 -0.6187,-26.74637 -3.5441,-19.29094 -14.3006,-30.23782 -33.4253,-34.01702 -6.3426,-1.25335 -9.1173,-1.44688 -20.96,-1.46195 l -11.52,-0.0147 -0.0822,50.56 c -0.0452,27.808 -0.007,50.75654 0.0841,50.99676 0.13795,0.3624 2.19405,0.40794 12.0822,0.26746 6.5537,-0.0931 13.0679,-0.32909 14.4759,-0.52442 z"
         id="path1295" />
      <path
         style="fill:#a3a49a;stroke-width:0.32"
         d="m 540.64,943.47773 c -13.18966,-1.39411 -22.53619,-4.46304 -31.36,-10.29706 -4.12582,-2.72787 -10.43629,-8.97715 -13.23187,-13.10361 -2.65872,-3.92445 -5.516,-9.93604 -6.88087,-14.47706 -1.46688,-4.88042 -2.63411,-11.70928 -2.10944,-12.34147 0.52564,-0.63338 24.35636,-0.68947 24.86848,-0.0585 0.1786,0.22 0.62695,1.48 0.99642,2.8 3.71296,13.26595 11.95174,21.86685 23.88435,24.93402 3.8976,1.00182 6.9105,1.34003 11.99293,1.34617 18.85069,0.0227 31.17386,-9.04681 30.29184,-22.29408 -0.59466,-8.93174 -7.20048,-14.94013 -20.56262,-18.70294 -1.91908,-0.54042 -8.74522,-1.99683 -15.16922,-3.23648 -17.73526,-3.42243 -22.31194,-4.71178 -29.92,-8.42919 -12.46778,-6.09193 -19.78886,-15.08 -22.06755,-27.09216 -0.65488,-3.45238 -0.64992,-10.90448 0.01,-14.38115 2.61174,-13.76813 13.60275,-24.63475 30.53795,-30.19241 12.17597,-3.99581 26.20275,-4.80048 39.04,-2.23962 21.27578,4.24426 35.26938,17.47997 40.30851,38.12534 0.39703,1.62663 0.63856,3.17463 0.53674,3.44 -0.16045,0.41812 -1.78471,0.4825 -12.17235,0.4825 -10.47079,0 -12.05079,-0.0636 -12.49005,-0.50285 -0.27658,-0.27657 -0.50285,-0.71321 -0.50285,-0.97033 0,-0.96592 -1.9889,-5.57418 -3.24365,-7.51552 -5.58835,-8.64631 -15.48339,-13.11997 -29.05325,-13.1354 -13.01302,-0.0147 -23.62169,5.21127 -26.59798,13.10269 -1.38806,3.68032 -1.15146,8.83523 0.57562,12.54141 1.32016,2.83293 5.00979,6.25133 8.71926,8.0783 4.18518,2.06128 6.88845,2.76976 20.41504,5.35044 16.4423,3.13692 22.70557,4.73827 30.23462,7.73017 12.69197,5.04355 21.11552,12.67351 24.80381,22.46695 1.82445,4.84451 2.39789,8.24163 2.41277,14.29414 0.0147,5.9231 -0.5217,9.1735 -2.32992,14.12182 -5.54534,15.17524 -22.1464,26.44301 -43.57059,29.57309 -3.49431,0.5105 -15.45792,0.89018 -18.36573,0.58282 z m 240.32,0.0134 c -0.704,-0.069 -2.864,-0.2768 -4.8,-0.46176 -10.86061,-1.03757 -20.79472,-4.42787 -27.49267,-9.38263 -8.86765,-6.5598 -14.58039,-17.04608 -16.98531,-31.17811 -1.5305,-8.99382 -1.5224,-8.71171 -1.66807,-58.0896 -0.1056,-35.79104 -0.0489,-46.76784 0.24336,-47.12 0.31895,-0.38432 2.36935,-0.45833 12.58186,-0.45424 6.71046,0.003 12.37453,0.1153 12.58685,0.25024 0.29763,0.18919 0.41219,10.97767 0.50032,47.11511 0.10352,42.44265 0.16662,47.21734 0.66825,50.54976 1.4832,9.85376 4.1353,15.89929 8.93917,20.37734 5.3024,4.94275 12.71405,7.18675 23.74624,7.18957 21.1087,0.005 30.75357,-9.27776 32.7968,-31.56691 0.19859,-2.1664 0.32275,-20.75376 0.32294,-48.336 2e-4,-34.42992 0.0892,-44.905 0.38426,-45.2 0.4497,-0.4497 24.44982,-0.55575 25.15069,-0.11114 0.33741,0.21405 0.39321,9.11478 0.29933,47.7551 -0.11383,46.85079 -0.12484,47.55831 -0.81652,52.39914 -2.19497,15.36221 -6.35392,25.20362 -13.8175,32.69683 -6.94323,6.97082 -16.48694,11.08298 -30.08,12.96083 -3.50042,0.48359 -19.4415,0.9121 -22.56,0.60647 z M 650.304,940.736 c -0.29597,-0.29597 -0.384,-14.3431 -0.384,-61.28 V 818.56 h -22.176 c -16.82134,0 -22.26874,-0.0927 -22.56,-0.384 -0.59254,-0.59254 -0.54528,-20.52378 0.0499,-21.0177 0.31865,-0.26444 15.71715,-0.33859 58,-0.27916 l 57.5661,0.0809 0.0845,10.53837 c 0.0658,8.21795 -0.004,10.59488 -0.32,10.7951 -0.22243,0.14119 -10.37645,0.25895 -22.56445,0.26163 l -22.16,0.005 v 61.08576 c 0,55.40704 -0.047,61.10384 -0.50618,61.28 -0.2784,0.10685 -5.9376,0.19424 -12.576,0.19424 -8.96096,0 -12.16873,-0.0989 -12.45382,-0.384 z m 220.8,0 c -0.29638,-0.29638 -0.384,-16.68106 -0.384,-71.80083 0,-62.0289 0.0611,-71.46749 0.46445,-71.80227 0.76022,-0.63092 50.46963,-0.25591 56.17555,0.4238 19.16573,2.28311 32.60746,7.36372 43.16966,16.31693 9.19626,7.79536 15.71997,19.74717 18.56912,34.01965 1.30836,6.55405 1.62986,9.69766 1.84416,18.03155 0.77677,30.20858 -8.47961,51.42688 -27.6111,63.29261 -10.64432,6.60182 -24.40736,10.40362 -41.89184,11.57194 -7.19187,0.48054 -49.8473,0.43532 -50.336,-0.0534 z m 46.18147,-20.74934 c 6.19024,-0.40343 10.80992,-1.04394 14.89565,-2.06522 18.30352,-4.57526 28.17408,-16.07859 31.19808,-36.35888 0.69546,-4.66384 0.95094,-15.48272 0.49037,-20.76256 -2.0009,-22.93686 -12.06813,-35.8921 -31.70957,-40.80605 -6.71066,-1.67888 -16.62867,-2.49571 -28.32,-2.33232 l -7.04,0.0984 -0.0822,50.88 c -0.0452,27.984 -0.0138,51.06 0.07,51.28 0.1943,0.51088 13.04067,0.55267 20.49769,0.0667 z M 1034.944,940.736 c -0.2928,-0.29277 -0.384,-6.98557 -0.384,-28.17104 v -27.78704 l -25.4702,-43.51946 c -14.94788,-25.54054 -25.39578,-43.7134 -25.29006,-43.98896 0.15463,-0.40294 2.20071,-0.4695 14.43492,-0.4695 h 14.25474 l 0.6364,1.04 c 0.35,0.572 8.3039,14.8273 17.6753,31.67843 9.3714,16.85111 17.1829,30.63408 17.3589,30.62883 0.176,-0.005 8.3555,-14.09529 18.1767,-31.31113 9.8212,-17.21587 18.022,-31.46685 18.224,-31.66883 0.509,-0.509 28.2642,-0.52484 28.5784,-0.0163 0.1193,0.19302 -11.6802,20.14809 -26.2211,44.34464 l -26.438,43.99369 v 27.62112 c 0,24.89162 -0.05,27.64029 -0.5062,27.81533 -0.2784,0.10685 -5.9376,0.19424 -12.576,0.19424 -8.9609,0 -12.1687,-0.0989 -12.4538,-0.384 z M 567.52,744.92499 c -10.88522,-1.17597 -21.19299,-4.82758 -29.76,-10.54272 -4.39971,-2.93507 -11.51677,-9.92153 -14.57363,-14.30617 -5.89431,-8.4546 -9.95949,-18.42023 -12.15523,-29.79805 -2.16484,-11.21779 -2.4018,-24.6625 -0.63799,-36.19805 4.48336,-29.32157 21.70525,-49.5327 47.68685,-55.96397 5.80691,-1.43741 9.64768,-1.94761 16.32,-2.168 28.92896,-0.95555 50.48278,12.49319 60.05955,37.47485 1.25872,3.28346 3.30045,10.92397 3.30045,12.35088 V 646.72 H 625.59315 613.42627 L 613.13626,646 c -0.15949,-0.396 -0.6665,-1.93578 -1.12669,-3.42176 -3.04183,-9.82266 -9.21722,-17.34298 -17.60957,-21.4448 -5.62566,-2.7496 -10.78803,-3.87766 -17.76,-3.88093 -11.04707,-0.005 -19.84749,3.67811 -27.10374,11.34387 -9.05501,9.56599 -13.55834,23.40132 -13.55479,41.64362 0.004,18.93357 4.93114,33.52595 14.58442,43.19098 7.7632,7.7726 17.53021,11.21689 29.37872,10.36022 16.80237,-1.21482 28.14579,-10.316 32.84333,-26.3512 l 0.84371,-2.88 12.12288,-0.0839 c 8.66237,-0.06 12.18592,0.0182 12.34368,0.27337 0.32633,0.528 -0.85799,5.66896 -2.312,10.03607 -7.37216,22.14227 -24.02919,35.93212 -47.94621,39.69324 -4.03875,0.63511 -16.11654,0.90036 -20.32,0.44621 z m 136.32,0.16624 c -0.704,-0.069 -2.864,-0.2768 -4.8,-0.46176 -10.86061,-1.03757 -20.79472,-4.42787 -27.49267,-9.38262 -8.86765,-6.55981 -14.58039,-17.04608 -16.98531,-31.17811 -1.5305,-8.99383 -1.5224,-8.71172 -1.66807,-58.0896 -0.1056,-35.79104 -0.0489,-46.76784 0.24336,-47.12 0.31895,-0.38432 2.36935,-0.45834 12.58186,-0.45424 6.71046,0.003 12.37453,0.11529 12.58685,0.25024 0.29763,0.18918 0.41219,10.97766 0.50032,47.1151 0.10352,42.44266 0.16662,47.21734 0.66825,50.54976 1.4832,9.85376 4.1353,15.8993 8.93917,20.37734 5.3024,4.94276 12.71405,7.18676 23.74624,7.18957 21.1087,0.005 30.75357,-9.27776 32.7968,-31.56691 0.19859,-2.1664 0.32275,-20.75376 0.32294,-48.336 2e-4,-34.42992 0.0893,-44.90499 0.38426,-45.2 0.4497,-0.4497 24.44982,-0.55574 25.15069,-0.11114 0.33741,0.21405 0.39321,9.11479 0.29933,47.75511 -0.11383,46.85078 -0.12484,47.5583 -0.81652,52.39913 -2.19497,15.36221 -6.35392,25.20362 -13.8175,32.69684 -6.94323,6.97081 -16.48694,11.08297 -30.08,12.96083 -3.50042,0.48358 -19.4415,0.91209 -22.56,0.60646 z m 90.144,-2.75523 c -0.29638,-0.29638 -0.384,-16.68106 -0.384,-71.80083 0,-61.74301 0.0624,-71.46858 0.46045,-71.79895 0.35238,-0.29244 7.5808,-0.34918 30.8,-0.24172 31.65705,0.14649 33.10377,0.20416 41.30816,1.64633 21.70537,3.81546 33.28368,14.86893 36.06352,34.42877 0.63709,4.48275 0.63289,13.81168 -0.008,18.12883 -2.36794,15.94736 -11.20381,26.24275 -26.96551,31.41981 -9.9512,3.26854 -19.03587,4.18906 -41.41846,4.1968 L 819.52,688.32 v 26.816 c 0,20.43021 -0.0915,26.90746 -0.384,27.2 -0.28522,0.28522 -3.52,0.384 -12.576,0.384 -9.056,0 -12.29078,-0.0988 -12.576,-0.384 z m 53.536,-75.45744 c 12.38262,-0.59446 18.51078,-2.39264 22.88432,-6.71491 2.15069,-2.12551 3.20954,-3.88829 4.34806,-7.23882 0.73735,-2.16989 0.88013,-3.21165 1.01578,-7.4104 0.10109,-3.12809 0.0144,-5.77568 -0.24112,-7.36 -1.13392,-7.0328 -4.73853,-12.35251 -10.22931,-15.09648 -6.24301,-3.11993 -13.63027,-3.9536 -33.61773,-3.79385 l -12,0.0959 -0.0828,23.52 c -0.0455,12.936 -0.0141,23.7 0.07,23.92 0.18989,0.49734 18.0785,0.54781 27.8528,0.0786 z m 67.424,75.45744 c -0.55901,-0.55901 -0.55901,-142.99299 0,-143.552 0.5512,-0.5512 24.6008,-0.5512 25.152,0 0.55901,0.55901 0.55901,142.99299 0,143.552 -0.28522,0.28522 -3.52,0.384 -12.576,0.384 -9.056,0 -12.29078,-0.0988 -12.576,-0.384 z m 50.56,0 c -0.29638,-0.29638 -0.384,-16.68106 -0.384,-71.80083 0,-62.0289 0.0611,-71.46749 0.46445,-71.80227 0.76022,-0.63092 50.46965,-0.25591 56.17555,0.4238 19.1657,2.28311 32.6075,7.36372 43.1697,16.31693 9.1962,7.79536 15.7199,19.74717 18.5691,34.01965 1.3083,6.55405 1.6298,9.69766 1.8441,18.03155 0.7768,30.20858 -8.4796,51.42688 -27.6111,63.29261 -10.6443,6.60182 -24.4073,10.40362 -41.8918,11.57194 -7.1919,0.48054 -49.8473,0.43532 -50.336,-0.0534 z m 46.1815,-20.74934 c 6.1902,-0.40343 10.8099,-1.04394 14.8956,-2.06522 18.3035,-4.57526 28.1741,-16.07859 31.1981,-36.35888 0.6955,-4.66384 0.9509,-15.48272 0.4904,-20.76256 -2.0009,-22.93686 -12.0682,-35.8921 -31.7096,-40.80605 -6.7107,-1.67888 -16.6287,-2.49571 -28.32,-2.33232 l -7.04,0.0984 -0.0822,50.88 c -0.0452,27.984 -0.0138,51.06 0.07,51.28 0.1943,0.51088 13.0406,0.55267 20.4977,0.0667 z"
         id="path1293" />
      <path
         style="fill:#7c8280;stroke-width:0.32"
         d="m 537.1864,942.89139 c -10.50925,-1.32838 -20.01734,-4.6895 -27.7464,-9.80838 -4.21766,-2.79331 -10.70733,-9.30413 -13.5327,-13.57683 -2.55408,-3.8624 -4.59898,-8.08714 -6.11146,-12.62618 -1.29632,-3.89027 -2.37712,-8.92848 -2.50605,-11.68221 L 487.2,893.28 h 12.30669 12.30672 l 0.39017,1.12 c 0.21463,0.616 0.76029,2.31594 1.21261,3.77763 4.90579,15.8529 17.34803,24.38941 35.53543,24.38048 6.65747,-0.003 12.79635,-1.22697 17.71251,-3.53075 6.34217,-2.97203 10.20269,-7.00186 11.8992,-12.42106 0.88777,-2.83577 0.88067,-7.82886 -0.015,-10.72944 -1.88749,-6.11091 -7.93216,-10.92582 -17.74813,-14.13734 -2.10515,-0.68874 -8.34339,-2.09926 -15.52,-3.50925 -16.58826,-3.25901 -17.78355,-3.53203 -23.04,-5.26243 -12.31798,-4.05504 -20.48586,-9.76006 -25.87171,-18.07062 -6.21159,-9.58471 -7.19197,-23.5002 -2.41645,-34.29853 2.39898,-5.42451 8.15242,-11.95088 13.86522,-15.72781 7.85081,-5.1905 18.43062,-8.80282 29.21033,-9.97344 4.52947,-0.49187 13.88967,-0.41446 18.47146,0.1528 20.0527,2.48256 33.91699,11.72653 41.62406,27.7527 1.92023,3.99287 4.05373,10.37741 4.38336,13.11706 l 0.18288,1.52 h -12.17849 -12.17847 l -0.71085,-2.16 c -3.12502,-9.49568 -10.02611,-15.80726 -20.1526,-18.43114 -13.90269,-3.6023 -28.97354,-0.57868 -36.17719,7.25815 -1.48848,1.61933 -3.06701,5.056 -3.49917,7.61817 -1.19577,7.08928 2.49044,13.88048 9.49264,17.48852 4.19344,2.16076 7.72519,3.11504 21.01165,5.67718 6.89882,1.33037 14.52243,2.91501 16.94135,3.52144 24.19878,6.06659 36.27382,15.92282 39.7768,32.46768 0.7302,3.4489 0.96387,10.23354 0.47612,13.82608 -0.69088,5.08899 -2.43456,10.30499 -4.73827,14.17392 -7.25843,12.19005 -20.94595,20.40413 -39.27267,23.56806 -4.98256,0.8602 -18.03098,1.10855 -23.2936,0.44333 z M 776.32,942.85709 C 749.61082,939.97459 736.3168,927.7799 731.86685,902.08 730.4135,893.68643 730.4,893.1512 730.4,844 v -46.72 l 12.55296,-0.0837 12.55299,-0.0837 0.16842,0.72371 c 0.0926,0.39805 0.21286,22.10771 0.26717,48.24371 0.0975,46.95014 0.10688,47.56227 0.77977,51.0439 1.60701,8.31501 3.88106,13.22448 8.09687,17.48023 2.38435,2.40694 3.17001,2.97248 6.08,4.37638 5.78192,2.78951 11.6848,3.79341 20.45779,3.47923 5.72691,-0.20508 9.53305,-0.85664 13.25075,-2.26832 8.88643,-3.3743 14.27181,-10.4862 16.62938,-21.96073 1.26348,-6.14941 1.26953,-6.37488 1.45897,-54.23069 l 0.18493,-46.72 12.45875,-0.0838 c 9.75456,-0.0656 12.5144,0.004 12.71511,0.32 0.3687,0.5808 0.31827,80.00851 -0.0561,88.38589 -0.17261,3.86214 -0.53373,8.80618 -0.8025,10.98672 -1.81939,14.76016 -6.28368,25.43418 -13.74803,32.8712 -7.51459,7.48704 -17.50637,11.56605 -32.16723,13.13178 -5.42867,0.57977 -19.44698,0.56028 -24.96,-0.0347 z M 650.38877,940.4 c -0.0832,-0.22 -0.18663,-27.76 -0.22999,-61.2 l -0.0788,-60.8 -22.4,-0.16 -22.4,-0.16 v -10.4 -10.4 h 57.76 57.76 v 10.4 10.4 l -22.48,0.0822 -22.48,0.0821 v 60.7717 c 0,33.42442 -0.0874,60.99942 -0.19424,61.27782 -0.17251,0.44957 -1.58717,0.50618 -12.65005,0.50618 -9.67069,0 -12.4896,-0.0894 -12.60694,-0.4 z m 220.79917,0 c -0.0836,-0.22 -0.11508,-32.512 -0.07,-71.76 l 0.082,-71.36 h 25.76 c 27.35686,0 28.73363,0.0587 38.04522,1.62259 29.26252,4.91456 46.5734,19.66301 53.02777,45.17834 3.42608,13.54397 3.72723,31.93216 0.75923,46.35689 -3.76281,18.28749 -13.00822,31.51655 -27.99222,40.05341 -9.02,5.13901 -21.48941,8.5352 -36.03914,9.81571 -7.42617,0.65357 -53.32966,0.73332 -53.57292,0.0931 z m 54.5088,-20.98669 c 21.52051,-3.38105 32.87478,-13.67254 37.12864,-33.65331 1.14777,-5.39114 1.46377,-9.16298 1.44768,-17.28 -0.0125,-6.35043 -0.14605,-8.69462 -0.7025,-12.33814 -3.33373,-21.82832 -14.65962,-33.63818 -35.73226,-37.25908 -5.88617,-1.01142 -11.36876,-1.32099 -21.5983,-1.21955 l -9.76,0.0968 -0.0822,50.88 c -0.0452,27.984 -0.008,51.0751 0.0829,51.3136 0.13629,0.35811 2.32231,0.40704 12.56218,0.28102 10.48131,-0.12899 13.05497,-0.2559 16.65389,-0.82131 z m 109.39656,21.17335 c -0.1173,-0.11732 -0.2133,-12.68938 -0.2133,-27.93786 V 884.92426 L 1009.44,841.4591 C 995.448,817.55328 984,797.79584 984,797.5537 c 0,-0.36839 2.33837,-0.42669 14.32,-0.357 l 14.32,0.0833 17.5867,31.6 c 9.6726,17.38 17.7366,31.5984 17.92,31.59642 0.1833,-0.003 8.2978,-13.95005 18.0322,-30.99575 9.7344,-17.04569 17.9145,-31.30009 18.1781,-31.67641 0.4773,-0.68135 0.539,-0.68426 14.5411,-0.68426 8.4765,0 14.0619,0.11846 14.0619,0.29821 0,0.16403 -11.808,19.97472 -26.24,44.02374 l -26.24,43.72551 v 27.31011 c 0,15.02054 -0.087,27.53785 -0.1942,27.81625 -0.1725,0.44951 -1.5816,0.50618 -12.5867,0.50618 -6.8158,0 -12.4884,-0.096 -12.6058,-0.21334 z M 566.72,744.60602 c -7.11626,-0.80343 -15.54742,-3.21748 -21.6417,-6.19658 -9.42278,-4.60621 -18.19702,-12.54736 -23.74211,-21.4879 -8.34829,-13.4602 -12.26432,-29.87268 -11.78726,-49.40154 0.2712,-11.1017 1.45849,-18.47277 4.41312,-27.39811 3.37875,-10.20653 8.46208,-18.75283 15.23494,-25.61347 9.29139,-9.41188 21.07952,-15.25348 35.44301,-17.56384 4.34454,-0.69882 16.34214,-0.97844 20.6649,-0.48164 8.40608,0.96608 15.17516,2.89978 21.8951,6.25466 14.79754,7.38762 24.94589,20.63677 29.41485,38.4024 0.44272,1.76 0.8455,3.704 0.89504,4.32 l 0.0901,1.12 -11.87763,0.0838 c -9.26503,0.0654 -11.94595,-0.005 -12.18839,-0.32 -0.17091,-0.22211 -0.65155,-1.62784 -1.06809,-3.12384 -1.10279,-3.96067 -4.33002,-10.20192 -6.94663,-13.4344 -8.69673,-10.74352 -24.31148,-15.31667 -39.27926,-11.50387 -1.408,0.35869 -4.144,1.41305 -6.08,2.34307 -12.8312,6.16384 -20.87616,18.81187 -23.73485,37.3152 -0.70614,4.57069 -0.8127,18.7056 -0.17488,23.2 2.75879,19.43974 10.4936,32.50669 23.09415,39.01462 5.99139,3.09444 11.27472,4.18845 18.89558,3.91274 10.40506,-0.37648 18.20086,-3.34787 24.62448,-9.38573 4.4512,-4.18387 7.58438,-9.27971 9.61392,-15.63619 0.55939,-1.752 1.1455,-3.50944 1.30246,-3.90544 l 0.28541,-0.72 h 11.8569 c 10.11334,0 11.88336,0.0689 12.03664,0.46835 0.0989,0.2576 -0.27904,2.3096 -0.83978,4.56 -6.4856,26.02938 -25.24704,42.26429 -52.22742,45.19421 -3.59437,0.39034 -14.65795,0.38026 -18.17261,-0.0166 z M 699.2,744.45709 C 672.49082,741.57459 659.1968,729.3799 654.74685,703.68 653.2935,695.28643 653.28,694.7512 653.28,645.6 v -46.72 l 12.55296,-0.0837 12.55299,-0.0837 0.16842,0.72371 c 0.0926,0.39805 0.21286,22.10771 0.26717,48.24371 0.0975,46.95014 0.10688,47.56227 0.77977,51.0439 1.60701,8.31501 3.88106,13.22448 8.09687,17.48023 2.38435,2.40694 3.17001,2.97248 6.08,4.37638 5.78192,2.78951 11.6848,3.79341 20.45779,3.47923 5.72691,-0.20508 9.53305,-0.85664 13.25075,-2.26832 8.88643,-3.3743 14.27181,-10.4862 16.62938,-21.96073 1.26348,-6.14941 1.26953,-6.37488 1.45897,-54.23069 l 0.18493,-46.72 12.45875,-0.0838 c 9.75456,-0.0656 12.5144,0.004 12.71511,0.32 0.3687,0.5808 0.31827,80.00851 -0.0561,88.38589 -0.17261,3.86214 -0.53373,8.80618 -0.8025,10.98672 -1.81939,14.76016 -6.28368,25.43418 -13.74803,32.8712 -7.51459,7.48704 -17.50637,11.56605 -32.16723,13.13178 -5.42867,0.57977 -19.44698,0.56028 -24.96,-0.0347 z m 94.86938,-2.45331 c -0.0844,-0.22208 -0.11652,-32.51578 -0.0714,-71.76378 l 0.082,-71.36 30.88,0.007 c 27.43085,0.006 31.35946,0.0689 35.17248,0.56256 14.87418,1.92557 23.95917,5.47328 30.84451,12.04477 3.38522,3.23091 5.12576,5.61673 7.13914,9.78579 3.09427,6.40726 4.37123,12.8649 4.39789,22.24 0.0189,6.61744 -0.28938,9.43008 -1.5712,14.33926 -3.64634,13.96509 -13.11165,22.83044 -28.75101,26.92861 -10.04464,2.63213 -13.64141,2.96013 -34.91181,3.18375 l -17.92,0.18838 -0.16,27.04 -0.16,27.04 -12.40861,0.0838 c -9.75587,0.0658 -12.44137,-0.003 -12.56201,-0.32 z m 63.08326,-75.71034 c 12.82208,-2.4023 18.36483,-8.42896 18.91318,-20.56435 0.31565,-6.98509 -0.9222,-12.48602 -3.76672,-16.73891 -3.19737,-4.78048 -8.08857,-7.48256 -16.38329,-9.05079 -2.57149,-0.48614 -5.1401,-0.56016 -19.75581,-0.56909 l -16.8,-0.0102 -0.0828,23.52 c -0.0455,12.936 -0.009,23.71284 0.0809,23.94852 0.13492,0.35321 3.15821,0.40236 17.20276,0.27955 15.52217,-0.13571 17.35539,-0.20826 20.59174,-0.81463 z m 57.87674,75.71034 c -0.0844,-0.22208 -0.11652,-32.51578 -0.0714,-71.76378 l 0.082,-71.36 H 927.52 940 v 71.68 71.68 l -12.40861,0.0838 c -9.75587,0.0658 -12.44137,-0.003 -12.56201,-0.32 z m 50.55856,-0.004 c -0.0836,-0.22 -0.11508,-32.512 -0.07,-71.76 l 0.082,-71.36 h 25.76 c 27.35686,0 28.73356,0.0587 38.04516,1.62259 29.2625,4.91456 46.5734,19.66301 53.0278,45.17833 3.4261,13.54397 3.7272,31.93216 0.7592,46.3569 -3.7628,18.28749 -13.0082,31.51654 -27.9922,40.05341 -9.02,5.13901 -21.4894,8.5352 -36.0391,9.81571 -7.4262,0.65357 -53.32966,0.73331 -53.57292,0.0931 z m 54.50876,-20.98669 c 21.5205,-3.38106 32.8748,-13.67255 37.1287,-33.65331 1.1478,-5.39114 1.4638,-9.16298 1.4477,-17.28 -0.013,-6.35044 -0.1461,-8.69463 -0.7025,-12.33815 -3.3338,-21.82832 -14.6597,-33.63817 -35.7323,-37.25907 -5.8862,-1.01142 -11.3688,-1.32099 -21.5983,-1.21955 l -9.76,0.0968 -0.0822,50.88 c -0.0452,27.984 -0.008,51.0751 0.0829,51.3136 0.13629,0.35811 2.32231,0.40704 12.5621,0.28102 10.4814,-0.12899 13.055,-0.2559 16.6539,-0.82131 z"
         id="path1291" />
      <path
         style="fill:#5e696d;stroke-width:0.32"
         d="m 541.92,943.17078 c -8.8367,-0.89088 -12.47597,-1.58822 -18.3615,-3.51833 -19.04663,-6.24618 -31.45386,-20.13987 -35.40314,-39.64471 -0.93811,-4.63318 -1.0151,-6.41494 -0.28918,-6.6935 0.2784,-0.10685 5.57888,-0.19424 11.77884,-0.19424 8.5345,0 11.39578,0.0971 11.77949,0.4 0.27875,0.22 0.95965,1.87984 1.51312,3.68851 4.34803,14.20912 13.44595,22.40656 27.65895,24.92144 3.93852,0.6969 12.45308,0.6849 16.43923,-0.023 14.12339,-2.50867 22.47472,-10.24768 22.47472,-20.82678 0,-9.17984 -5.84691,-15.41827 -18.26944,-19.4928 -4.39687,-1.44218 -6.83482,-1.98643 -23.64109,-5.27795 -10.71907,-2.09933 -15.26294,-3.3481 -20.94595,-5.75652 -14.70858,-6.23331 -23.17309,-16.24966 -25.14842,-29.759 -0.55257,-3.77914 -0.23081,-11.30356 0.63091,-14.75373 0.84061,-3.3656 3.58845,-9.05607 5.74173,-11.8905 5.98186,-7.87408 16.00682,-14.05417 27.88672,-17.19136 17.05386,-4.50349 36.59792,-2.92368 50.47178,4.07984 3.31785,1.67485 7.71078,4.82346 10.70627,7.6737 5.60755,5.33558 9.5543,11.54358 12.25578,19.27747 1.47852,4.2328 2.53267,8.60736 2.16316,8.97686 -0.15555,0.15556 -5.57366,0.24432 -12.08272,0.19799 l -11.80073,-0.084 -0.8448,-2.40954 c -4.54224,-12.95571 -15.47699,-19.58525 -32.31373,-19.59126 -9.88541,-0.004 -17.93702,2.70515 -23.07507,7.76275 -3.29431,3.24275 -4.75399,6.67984 -4.76112,11.21082 -0.0131,8.32755 5.25661,14.21833 15.67619,17.52371 1.672,0.5304 8.08,1.9231 14.24,3.09494 16.26256,3.0936 22.97232,4.75475 29.76218,7.36826 9.81062,3.77622 16.94784,8.67661 21.67257,14.88032 7.7761,10.21017 9.04026,26.86544 2.97843,39.24112 -6.79536,13.87334 -21.6696,23.10083 -42.25318,26.21254 -3.09475,0.46784 -14.03008,0.86026 -16.64,0.59712 z m 237.76,-0.16656 c -24.04458,-1.81408 -37.75373,-10.59369 -44.41494,-28.44422 -2.04688,-5.48512 -3.35962,-11.60608 -4.28941,-20 -0.72842,-6.57597 -1.02567,-96.48093 -0.32093,-97.06582 0.34275,-0.28448 3.55418,-0.36055 12.58275,-0.29808 l 12.12253,0.0839 0.18378,47.2 c 0.19372,49.75046 0.16249,48.74006 1.72224,55.7167 2.88083,12.88564 10.18137,19.78503 23.2006,21.92567 3.72368,0.61225 12.86317,0.6919 16.49338,0.14371 7.42288,-1.12093 12.79155,-3.64605 16.81232,-7.90762 2.25709,-2.39225 2.87098,-3.27942 4.41974,-6.38723 1.53892,-3.088 2.68628,-6.77952 3.62135,-11.65123 0.70531,-3.67472 0.70649,-3.74797 0.81741,-51.08992 0.0914,-39.00726 0.18668,-47.47264 0.5376,-47.76387 0.29913,-0.24826 4.04745,-0.32893 12.54905,-0.27011 l 12.12253,0.0839 0.0973,43.2 c 0.0986,43.74877 -0.0224,50.15408 -1.09219,57.92 -3.26,23.66118 -13.97994,37.15008 -33.56512,42.23504 -9.00832,2.33885 -21.92778,3.24982 -33.6,2.36918 z M 650.62774,940.41974 C 650.32682,940.11882 650.24,926.39904 650.24,879.136 V 818.24 h -22.176 c -16.82134,0 -22.26874,-0.0927 -22.56,-0.384 -0.59216,-0.59216 -0.54496,-19.88406 0.0499,-20.3777 0.31865,-0.26444 15.63379,-0.33859 57.68,-0.27916 l 57.24614,0.0809 0.0844,10.32 c 0.0464,5.676 0.0464,10.35354 0,10.39456 -0.0465,0.041 -10.16445,0.14899 -22.48445,0.24 l -22.4,0.16544 -0.16,61.12 -0.16,61.12 -12.17226,0.0837 c -9.20028,0.0633 -12.26694,-0.0109 -12.56,-0.304 z m 220.81226,0.0182 c -0.57338,-0.58211 -0.58925,-142.36083 -0.016,-142.93408 0.48525,-0.48524 41.8007,-0.53513 49.056,-0.0593 17.5001,1.1479 30.22176,4.39014 40.86019,10.41366 9.67235,5.47655 17.35277,13.7441 22.13904,23.83152 5.1625,10.88029 7.61184,24.77482 7.13408,40.47008 -0.32173,10.5689 -1.64067,18.83578 -4.26048,26.70388 -7.59446,22.80848 -25.13712,36.04441 -53.44259,40.32236 -8.49917,1.28452 -10.72755,1.37828 -36.11024,1.51927 -19.88957,0.11046 -25.04125,0.0562 -25.36,-0.26743 z m 51.12,-20.43203 c 9.88416,-1.17373 17.89997,-3.75475 24,-7.72781 2.676,-1.74294 8.13478,-7.2016 9.87837,-9.87814 4.13686,-6.3505 6.7663,-14.62285 7.71565,-24.27392 0.47558,-4.83459 0.39881,-14.94739 -0.149,-19.63043 -2.66131,-22.75098 -13.56633,-35.24663 -34.40502,-39.42346 -6.51552,-1.30595 -10.30509,-1.58189 -22.08,-1.60784 l -11.04,-0.0243 -0.0822,51.2 c -0.0452,28.16 -0.006,51.39959 0.0867,51.64352 0.14134,0.37127 2.0311,0.41421 11.60218,0.26349 6.28835,-0.099 12.80134,-0.3425 14.47334,-0.54106 z m 112.7077,20.41379 c -0.2977,-0.29769 -0.3877,-6.8232 -0.3877,-28.0951 v -27.70736 l -25.4373,-43.46355 c -13.99054,-23.90493 -25.35806,-43.59181 -25.26113,-43.74861 0.0987,-0.15971 6.26877,-0.28512 14.02771,-0.28512 12.79352,0 13.88862,0.0428 14.33732,0.56 0.2672,0.308 8.2111,14.456 17.653,31.44 9.4419,16.984 17.3044,31.096 17.4722,31.36 0.2712,0.42666 0.3576,0.42666 0.7778,0 0.26,-0.264 8.4923,-14.52 18.294,-31.68 9.8016,-17.16 17.9821,-31.30579 18.1788,-31.4351 0.1967,-0.12932 6.4461,-0.23732 13.8876,-0.24 10.5328,-0.004 13.564,0.0837 13.683,0.3951 0.084,0.22 -11.6204,19.984 -26.0101,43.92 l -26.1629,43.52 -0.16,27.84 -0.16,27.84 -12.1723,0.0837 c -9.2002,0.0633 -12.2669,-0.0109 -12.56,-0.304 z M 570.08,744.75888 c -24.31117,-2.0231 -41.91222,-13.59517 -52.02826,-34.20669 -9.6607,-19.68381 -11.25545,-48.41728 -3.91571,-70.55219 7.24976,-21.86352 23.05779,-36.59715 44.74397,-41.70282 6.5664,-1.54595 10.3081,-1.94937 18.08,-1.94937 8.18755,0 11.99389,0.44873 18.72,2.20701 10.29328,2.69075 17.96707,7.03443 25.12637,14.22262 2.20352,2.21242 4.97385,5.39056 6.15629,7.06256 2.46681,3.48813 6.14396,10.68403 7.5846,14.84253 1.0936,3.1567 2.89274,10.03469 2.89274,11.05875 0,0.65318 -0.10029,0.65872 -11.93594,0.65872 h -11.93593 l -1.03098,-3.36838 c -4.14112,-13.52964 -13.59283,-22.46151 -26.77715,-25.30445 -5.82739,-1.25655 -13.49542,-1.18432 -18.8193,0.17731 -17.14979,4.38618 -28.21334,19.54602 -30.95452,42.41552 -0.48775,4.06925 -0.49069,15.29728 -0.005,19.68 2.40361,21.69699 12.70067,37.13549 28.30912,42.44426 3.8856,1.3216 7.33155,1.82576 12.34985,1.80684 18.20317,-0.0685 30.73699,-8.95715 36.13847,-25.62832 l 1.21267,-3.74278 11.88441,-0.0839 11.88445,-0.0839 v 0.83056 c 0,0.45684 -0.2943,2.00656 -0.65405,3.44391 -6.43228,25.70141 -23.78937,41.37437 -50.05145,45.19507 -3.20141,0.46576 -13.92957,0.8305 -16.9745,0.57712 z m 132.48,-0.15466 c -24.04458,-1.81408 -37.75373,-10.59369 -44.41494,-28.44422 -2.04688,-5.48512 -3.35962,-11.60608 -4.28941,-20 -0.72842,-6.57597 -1.02567,-96.48093 -0.32093,-97.06582 0.34275,-0.28448 3.55418,-0.36055 12.58275,-0.29808 l 12.12253,0.0839 0.18378,47.2 c 0.19372,49.75046 0.16249,48.74006 1.72224,55.7167 2.88083,12.88564 10.18137,19.78503 23.2006,21.92567 3.72368,0.61225 12.86317,0.6919 16.49338,0.14371 7.42288,-1.12093 12.79155,-3.64605 16.81232,-7.90762 2.25709,-2.39225 2.87098,-3.27942 4.41974,-6.38723 1.53892,-3.088 2.68628,-6.77952 3.62135,-11.65123 0.70531,-3.67472 0.70649,-3.74797 0.81741,-51.08992 0.0914,-39.00726 0.18668,-47.47264 0.5376,-47.76387 0.29913,-0.24826 4.04745,-0.32893 12.54905,-0.27011 l 12.12253,0.0839 0.0973,43.2 c 0.0986,43.74877 -0.0224,50.15408 -1.09219,57.92 -3.26,23.66118 -13.97994,37.15008 -33.56512,42.23504 -9.00832,2.33885 -21.92778,3.24982 -33.6,2.36918 z m 91.744,-2.58822 c -0.55898,-0.55898 -0.55898,-142.35302 0,-142.912 0.49434,-0.49434 50.29213,-0.53555 58.336,-0.0483 13.44678,0.81456 22.0704,2.75959 29.93766,6.75236 10.51223,5.33507 16.65789,14.07584 19.03168,27.06812 0.70394,3.8528 0.97034,13.18151 0.50372,17.63812 -1.92682,18.40227 -12.11783,29.66518 -31.16247,34.44016 C 861.58854,687.30179 852.8985,688 833.04547,688 H 819.2 v 26.816 c 0,20.43021 -0.0915,26.90746 -0.384,27.2 -0.28486,0.28486 -3.4489,0.384 -12.256,0.384 -8.8071,0 -11.97114,-0.0991 -12.256,-0.384 z m 54.176,-74.80035 c 6.43706,-0.31565 10.67296,-0.95091 14.24,-2.13555 6.54243,-2.1728 11.04054,-6.77597 12.6503,-12.9457 1.25799,-4.82147 1.17552,-12.34202 -0.18921,-17.25213 -1.00583,-3.61891 -2.37347,-5.94352 -5.08723,-8.64681 -2.84052,-2.82957 -5.83053,-4.44154 -10.37152,-5.59146 -5.62759,-1.42509 -8.33402,-1.59962 -24.84234,-1.60186 l -15.52,-0.003 -0.0828,23.84 c -0.0455,13.112 -0.0141,24.02 0.07,24.24 0.18467,0.48372 19.89904,0.54845 29.1328,0.0957 z m 66.784,74.80035 c -0.55898,-0.55898 -0.55898,-142.35302 0,-142.912 0.55094,-0.55094 23.96106,-0.55094 24.512,0 0.55898,0.55898 0.55898,142.35302 0,142.912 -0.28486,0.28486 -3.4489,0.384 -12.256,0.384 -8.8071,0 -11.97114,-0.0991 -12.256,-0.384 z m 50.576,0.0221 c -0.57338,-0.58211 -0.58925,-142.36083 -0.016,-142.93408 0.48525,-0.48525 41.8007,-0.53514 49.056,-0.0593 17.5001,1.1479 30.2218,4.39014 40.8602,10.41366 9.6723,5.47654 17.3528,13.7441 22.139,23.83152 5.1625,10.88029 7.6119,24.77482 7.1341,40.47008 -0.3217,10.5689 -1.6407,18.83578 -4.2605,26.70387 -7.5944,22.80848 -25.1371,36.04442 -53.4426,40.32237 -8.4991,1.28451 -10.7275,1.37827 -36.1102,1.51926 -19.88957,0.11047 -25.04125,0.0562 -25.36,-0.26742 z m 51.12,-20.43213 c 9.8842,-1.17373 17.9,-3.75475 24,-7.72781 2.676,-1.74294 8.1348,-7.2016 9.8784,-9.87814 4.1368,-6.3505 6.7663,-14.62285 7.7156,-24.27392 0.4756,-4.83459 0.3988,-14.94739 -0.149,-19.63043 -2.6613,-22.75098 -13.5663,-35.24663 -34.405,-39.42346 -6.5155,-1.30595 -10.3051,-1.58189 -22.08,-1.60784 l -11.04,-0.0243 -0.0822,51.2 c -0.0452,28.16 -0.006,51.39959 0.0867,51.64352 0.14134,0.37127 2.0311,0.41421 11.6022,0.26349 6.2883,-0.099 12.8013,-0.3425 14.4733,-0.54106 z"
         id="path1289" />
      <path
         style="fill:#344752;stroke-width:0.32"
         d="m 537.3625,942.55462 c -8.29021,-1.04832 -14.68295,-2.93347 -21.6825,-6.39395 -12.48099,-6.1704 -21.17008,-16.13267 -25.53869,-29.28067 -1.21897,-3.6687 -2.41277,-9.15734 -2.54038,-11.68 l -0.0809,-1.6 12.06662,-0.0838 12.06666,-0.0838 0.35837,1.36384 c 2.02454,7.70464 4.92646,13.152 9.56425,17.95357 7.02964,7.27792 16.19837,10.45062 28.9841,10.02953 5.84054,-0.19238 8.39546,-0.62016 13.23606,-2.21616 5.37674,-1.77276 10.43914,-5.43065 13.0345,-9.4182 2.25098,-3.4584 3.34938,-8.62666 2.70864,-12.7449 -1.33088,-8.55421 -9.12694,-14.72739 -23.0136,-18.22301 -1.69709,-0.4272 -8.3416,-1.79248 -14.7656,-3.03395 -12.81459,-2.47651 -17.15754,-3.52893 -21.94611,-5.31805 -15.81091,-5.90736 -25.29767,-15.78093 -27.79088,-28.924 -3.29946,-17.39341 4.40605,-32.2191 21.18573,-40.76214 6.10588,-3.10867 12.10483,-5.03415 19.75126,-6.33952 4.90762,-0.83779 15.53184,-1.16032 20.6856,-0.62794 22.20115,2.29335 37.30282,12.76119 44.58957,30.90755 1.14227,2.84464 3.04339,9.39226 3.04435,10.48496 0,0.52989 -0.71514,0.55882 -11.8736,0.48 l -11.87405,-0.0839 -1.06211,-2.97491 C 571.94614,821.31459 559.76058,814.512 542.72,815.14422 c -8.98528,0.33341 -15.88582,2.67572 -21.07773,7.15466 -8.36899,7.21971 -6.76643,20.65936 3.15696,26.4753 4.736,2.77568 7.90343,3.6888 22.27383,6.42105 6.14182,1.16778 12.96694,2.55095 15.16694,3.07373 25.97325,6.172 38.42378,16.25264 41.66093,33.73104 0.63923,3.45139 0.53542,12.20336 -0.18407,15.52 -3.93347,18.13203 -20.14028,30.91245 -44.03686,34.72669 -4.66822,0.74512 -17.464,0.92169 -22.3175,0.30793 z m 241.9975,0.27959 c -32.29747,-2.59338 -46.29965,-17.83059 -48.47834,-52.75421 -0.18592,-2.98026 -0.31987,-23.40826 -0.32054,-48.88 v -43.76 h 12.30144 12.30147 l 0.12765,46.32 c 0.13904,50.4361 0.11504,49.74358 1.9831,57.20432 3.24996,12.97968 10.53946,19.49005 24.00634,21.44048 3.81715,0.55286 11.03958,0.61069 15.04,0.12045 13.25946,-1.6249 21.27795,-8.65648 24.64371,-21.61056 1.93629,-7.45232 1.8697,-5.55639 1.99015,-56.67469 l 0.11027,-46.8 h 12.31977 12.31978 l -0.11344,47.76 c -0.12272,51.67123 -0.0618,49.75133 -1.86195,58.64 -4.2489,20.97965 -14.89786,32.46496 -34.36829,37.06749 -6.35763,1.50288 -10.12989,1.86144 -20.64,1.96189 -5.368,0.0513 -10.48,0.0355 -11.36,-0.0352 z M 650.48083,879.28 650.4,818.08 l -22.48,-0.0822 -22.48,-0.0821 v -10.23872 -10.23869 l 57.52,0.0809 57.52,0.0809 v 10.08 10.08 l -22.24,0.0801 c -20.45683,0.0737 -22.27206,0.12349 -22.64,0.62115 -0.3167,0.42835 -0.4,13.19069 -0.4,61.27987 V 940.48 h -12.31917 -12.3192 z M 871.36,868.93706 v -71.54298 l 26.32,0.13702 c 27.50486,0.1432 28.57258,0.19149 37.36,1.68983 29.14573,4.9696 46.55642,19.91325 52.76131,45.28515 2.03082,8.30397 2.41082,12.09344 2.42016,24.13392 0.009,11.76243 -0.27456,15.05821 -1.94179,22.56 -2.80826,12.63574 -8.49757,23.34602 -16.32032,30.72355 -11.26992,10.62851 -27.27437,16.53568 -49.38333,18.22717 -2.39939,0.18355 -14.68371,0.32928 -27.76,0.32928 H 871.36 Z m 43.52,51.70665 c 9.36662,-0.42765 15.3064,-1.33629 21.17987,-3.24006 6.67306,-2.16295 11.38483,-4.98416 15.95223,-9.55155 6.84697,-6.84698 10.49273,-15.26272 12.20438,-28.1721 0.53542,-4.03827 0.53043,-17.81866 -0.008,-21.76 -1.76458,-12.91894 -5.8455,-21.99693 -12.8761,-28.64262 -6.53254,-6.17492 -15.01673,-9.70026 -27.33248,-11.35719 -6.00352,-0.80768 -26.18102,-1.27117 -27.38102,-0.62893 -0.608,0.32538 -0.61898,1.24032 -0.61898,51.6641 0,48.55082 0.0304,51.35053 0.56,51.65901 0.70573,0.41104 9.64573,0.42534 18.32,0.0294 z m 120.32,-7.99894 v -27.83523 l -25.2964,-43.22151 c -13.9131,-23.77181 -25.37653,-43.42995 -25.47429,-43.68477 -0.1535,-0.40003 1.73987,-0.46326 13.86986,-0.46326 h 14.04763 l 17.5695,31.6 c 9.6632,17.38 17.7212,31.70717 17.9066,31.83814 0.1854,0.13101 0.5531,-0.0208 0.8171,-0.33708 0.264,-0.31639 8.518,-14.64356 18.3424,-31.83815 L 1084.8447,797.44 h 13.9165 c 7.6541,0 13.8584,0.108 13.7873,0.24 -0.071,0.132 -11.9235,19.896 -26.3388,43.92 L 1060,885.28 l -0.085,27.6 -0.085,27.6 H 1047.5148 1035.2 Z M 566.88,744.28618 c -29.18605,-3.50951 -48.66352,-22.17338 -55.00035,-52.70292 -3.58787,-17.2856 -2.54531,-37.52822 2.69785,-52.38326 3.65335,-10.35082 8.29607,-17.83818 15.477,-24.96 4.74854,-4.70947 8.53344,-7.43782 14.58796,-10.51568 7.39092,-3.75725 15.44058,-6.04432 24.44781,-6.94618 4.84439,-0.48502 15.8928,-0.21804 20.02973,0.484 16.79434,2.85015 29.85776,10.95412 38.4351,23.84346 2.69344,4.04746 5.27527,9.24416 6.8434,13.7744 1.34019,3.87174 3.10825,10.83309 2.85536,11.24227 -0.20733,0.33552 -22.872,0.36736 -23.34928,0.0328 -0.18448,-0.12931 -0.59063,-1.1711 -0.9025,-2.3151 -0.84851,-3.11219 -2.29322,-6.57389 -3.93974,-9.44 -5.19357,-9.04054 -13.08535,-14.67661 -23.78234,-16.98467 -3.23786,-0.69863 -10.65389,-0.95149 -14.16986,-0.48314 -14.74873,1.96458 -26.44688,12.32855 -31.99715,28.34781 -2.40089,6.92954 -3.40537,13.0087 -3.65549,22.12298 -0.38572,14.05782 1.6648,24.98694 6.53616,34.83702 4.38903,8.87485 11.33175,15.79107 19.33156,19.25782 4.42099,1.91584 8.12275,2.70612 13.55478,2.89373 17.73238,0.61245 31.03072,-7.47872 36.93344,-22.47155 0.6929,-1.76 1.43514,-3.92 1.64938,-4.8 0.21427,-0.88 0.5304,-1.78 0.70256,-2 0.38105,-0.48701 23.11971,-0.5895 23.41881,-0.10557 0.25098,0.40608 -0.86061,5.03735 -2.25011,9.37472 -1.49331,4.66147 -4.72186,11.39651 -7.32131,15.2729 -8.75991,13.06307 -21.704,21.03737 -39.05277,24.05875 -3.01715,0.52544 -5.51997,0.69066 -11.68,0.77098 -4.312,0.0562 -8.992,-0.0363 -10.4,-0.2056 z m 135.36,0.14803 c -32.29747,-2.59338 -46.29965,-17.83059 -48.47834,-52.75421 -0.18592,-2.98026 -0.31987,-23.40826 -0.32054,-48.88 v -43.76 h 12.30144 12.30147 l 0.12765,46.32 c 0.13904,50.4361 0.11504,49.74358 1.9831,57.20432 3.24996,12.97968 10.53946,19.49005 24.00634,21.44048 3.81715,0.55286 11.03958,0.61069 15.04,0.12045 13.25946,-1.6249 21.27795,-8.65648 24.64371,-21.61056 1.93629,-7.45232 1.8697,-5.55639 1.99015,-56.67469 l 0.11027,-46.8 h 12.31977 12.31978 l -0.11344,47.76 c -0.12272,51.67123 -0.0618,49.75133 -1.86195,58.64 -4.2489,20.97965 -14.89786,32.46496 -34.36829,37.06749 -6.35763,1.50288 -10.12989,1.86144 -20.64,1.96189 -5.368,0.0513 -10.48,0.0355 -11.36,-0.0352 z m 92,-73.89306 v -71.53881 l 30.8,0.11868 c 33.38797,0.12868 34.23562,0.16816 43.30426,2.01805 19.82662,4.04432 30.43657,14.56653 33.27667,33.00141 0.7992,5.18774 0.72672,14.7952 -0.1489,19.73334 -1.55997,8.79757 -4.79193,15.25143 -10.24803,20.46413 -2.97386,2.84122 -5.26691,4.43559 -9.27037,6.4456 -5.83696,2.93063 -13.27289,4.93395 -22.75363,6.13011 -3.4439,0.43453 -7.88931,0.57316 -21.92,0.68362 -11.45795,0.0902 -17.73958,0.25418 -18,0.46982 -0.31418,0.2602 -0.4,6.08944 -0.4,27.17207 V 742.08 h -12.32 -12.32 z m 62.24,-3.75037 c 4.35488,-0.82083 6.61798,-1.5039 9.3825,-2.83187 4.98867,-2.39638 8.27404,-6.52905 9.88864,-12.43891 0.81488,-2.98266 0.80582,-11.9497 -0.0157,-15.45181 -1.43245,-6.10717 -5.19309,-10.99165 -10.45556,-13.58013 -3.15177,-1.55027 -6.49516,-2.47353 -11.39683,-3.14713 -4.71789,-0.64832 -33.23869,-1.06275 -34.29337,-0.49827 l -0.7098,0.37987 v 23.93539 c 0,13.16448 0.10762,24.04301 0.23914,24.17456 0.13152,0.13152 8.01552,0.172 17.52,0.0899 13.55536,-0.11699 17.83277,-0.25318 19.84086,-0.63165 z M 915.2,670.56 v -71.52 h 12.32 12.32 v 71.52 71.52 H 927.52 915.2 Z m 50.56,-0.023 v -71.54298 l 26.32,0.13703 c 27.5049,0.1432 28.5726,0.19149 37.36,1.68982 29.1457,4.9696 46.5564,19.91325 52.7613,45.28515 2.0308,8.30397 2.4108,12.09344 2.4202,24.13392 0.01,11.76244 -0.2746,15.05821 -1.9418,22.56 -2.8083,12.63575 -8.4976,23.34602 -16.3203,30.72356 -11.27,10.62851 -27.2744,16.53568 -49.3834,18.22716 -2.3994,0.18356 -14.6837,0.32928 -27.75997,0.32928 H 965.76 Z m 43.52,51.70666 c 9.3666,-0.42765 15.3064,-1.33629 21.1799,-3.24007 6.673,-2.16294 11.3848,-4.98416 15.9522,-9.55155 6.847,-6.84698 10.4927,-15.26272 12.2044,-28.1721 0.5354,-4.03827 0.5304,-17.81865 -0.01,-21.76 -1.7646,-12.91894 -5.8455,-21.99692 -12.8761,-28.64262 -6.5326,-6.17491 -15.0168,-9.70026 -27.3325,-11.35718 -6.0035,-0.80768 -26.18102,-1.27117 -27.38102,-0.62893 -0.608,0.32537 -0.61898,1.24032 -0.61898,51.66409 0,48.55082 0.0304,51.35053 0.56,51.65901 0.70573,0.41104 9.6457,0.42535 18.32,0.0294 z"
         id="path1287" />
      <path
         style="fill:#223846;stroke-width:0.32"
         d="m 542.72,942.84819 c -8.02163,-0.70342 -13.96528,-1.79817 -19.12189,-3.52201 -15.98505,-5.34381 -27.14761,-15.94768 -32.80825,-31.16618 -1.20743,-3.24618 -2.61626,-9.11968 -2.97424,-12.4 l -0.21828,-2 h 11.97722 11.97718 l 0.87594,3.11635 c 0.96733,3.44167 3.33226,8.64867 5.22614,11.50675 1.54612,2.33325 4.84298,5.84461 7.16567,7.63191 7.0552,5.42883 17.932,8.01312 28.94835,6.87798 16.18355,-1.66758 26.0848,-9.93251 26.06835,-21.76022 -0.007,-5.21178 -1.43542,-8.56672 -5.25005,-12.33277 -2.99308,-2.95498 -5.82825,-4.67584 -10.77436,-6.53971 -4.81156,-1.81315 -8.05677,-2.5936 -22.00669,-5.29245 -6.8008,-1.31574 -13.93367,-2.83309 -15.85082,-3.37194 -10.36438,-2.91299 -17.90883,-6.90995 -23.82553,-12.62243 -4.9266,-4.75654 -7.73245,-9.58384 -9.57312,-16.46985 -0.7321,-2.73876 -0.82157,-3.6914 -0.84388,-8.98362 -0.0214,-5.12589 0.071,-6.29805 0.68999,-8.73824 2.79977,-11.0367 10.50365,-19.66205 22.65897,-25.36928 12.98336,-6.096 29.54522,-7.95946 45.14084,-5.07907 18.36083,3.39113 31.48803,13.73907 37.87414,29.85555 1.48074,3.7369 3.28013,10.32522 2.92106,10.69514 -0.13034,0.13427 -5.40912,0.20627 -11.73066,0.16 l -11.4937,-0.0841 -0.98566,-2.72 c -1.63853,-4.52157 -3.37725,-7.32115 -6.42582,-10.34662 -4.39799,-4.36458 -9.68333,-6.8962 -17.5609,-8.41136 -4.01373,-0.772 -12.4353,-0.7834 -16.23923,-0.0221 -10.77392,2.15657 -17.67655,7.04585 -19.79533,14.02147 -0.90288,2.97257 -0.74496,8.12121 0.3329,10.8527 1.45244,3.68067 4.85174,7.23271 9.01676,9.42183 3.85434,2.02582 8.27879,3.23436 19.9649,5.45344 6.16,1.16972 13,2.53673 15.2,3.03776 15.35475,3.49702 25.96515,8.40716 32.82518,15.1904 6.8648,6.78793 10.05018,15.01331 10.05354,25.96044 0.003,8.1402 -1.89107,14.81917 -5.93158,20.92192 -7.50624,11.33738 -21.65511,19.20708 -39.09213,21.74327 -4.22189,0.61408 -13.37309,1.05165 -16.41501,0.78493 z m 238.24,-0.15872 c -32.99504,-2.21606 -47.18045,-16.71158 -49.76176,-50.84947 -0.2377,-3.14355 -0.31978,-19.08832 -0.25453,-49.44 l 0.0963,-44.8 h 12 12 l 0.17293,47.36 c 0.18253,49.98086 0.13881,48.45613 1.5776,55.04 2.07987,9.51754 6.85081,16.11712 14.2352,19.69136 5.6648,2.74192 14.19942,3.96701 22.65427,3.25181 17.86317,-1.51098 26.22454,-10.06829 28.94003,-29.61811 0.47799,-3.44106 0.56023,-9.13284 0.71981,-49.80506 L 823.52,797.6 h 12 12 l 0.0968,42.08 c 0.10093,43.90182 -0.0394,50.61322 -1.23418,59.04 -3.73117,26.3152 -16.36685,39.53293 -41.26259,43.16336 -7.15219,1.04298 -16.15904,1.34349 -24.16,0.80611 z M 651.09718,940.2705 c -0.11945,-0.11943 -0.21939,-27.51716 -0.22208,-60.88384 -0.003,-37.66394 -0.11993,-60.84864 -0.30825,-61.14666 -0.2633,-0.41664 -3.25095,-0.50112 -22.63511,-0.64 L 605.6,817.44 v -9.92 -9.92 h 57.28 57.28 l 0.0845,10 0.0846,10 h -22.20538 c -18.24588,0 -22.26928,0.077 -22.56374,0.43181 -0.26106,0.31456 -0.38029,16.97104 -0.43917,61.36 L 675.04,940.32 l -11.86282,0.0838 c -6.52457,0.0461 -11.96057,-0.0138 -12.08,-0.13334 z m 220.74228,-0.16045 c -0.0899,-0.23651 -0.1266,-32.39805 -0.0815,-71.47005 l 0.082,-71.04 19.84,-0.0958 c 26.18688,-0.1265 36.22086,0.41354 46.69952,2.51334 19.76874,3.96141 34.14307,13.28759 42.55347,27.609 6.27466,10.68467 9.2569,23.93523 9.26669,41.1735 0.007,12.13117 -1.19114,20.75283 -4.12086,29.65597 -4.59728,13.97072 -12.99485,24.45504 -25.05863,31.28563 -9.52985,5.39584 -20.99235,8.57123 -36.54019,10.1225 -2.23056,0.22256 -13.28979,0.428 -28.07853,0.5216 -20.23971,0.12806 -24.42637,0.0811 -24.56201,-0.27565 z m 52.30585,-19.93408 c 12.40615,-1.76631 20.59581,-5.15395 27.16643,-11.23731 6.58176,-6.09373 10.63956,-14.51613 12.71098,-26.38311 0.70627,-4.04624 1.00269,-18.78243 0.47088,-23.41033 -2.6895,-23.40432 -13.68272,-36.21239 -34.68566,-40.41188 -6.84244,-1.36816 -9.9464,-1.59305 -22.12794,-1.60348 l -11.52,-0.01 -0.0822,51.52 c -0.0452,28.336 -0.007,51.71734 0.0847,51.95852 0.24765,0.6506 22.84154,0.30941 27.98275,-0.42256 z m 111.52729,19.90793 c -0.083,-0.22214 -0.1868,-12.7879 -0.2314,-27.9239 l -0.081,-27.52 -25.3629,-43.30589 c -13.94958,-23.81824 -25.28107,-43.43824 -25.1811,-43.6 0.21619,-0.34982 26.69,-0.39766 27.2249,-0.0492 0.1986,0.12931 8.2468,14.4191 17.8851,31.7551 9.6382,17.336 17.6838,31.62326 17.8791,31.74947 0.1952,0.12621 0.5867,-0.0179 0.87,-0.32 0.2833,-0.30221 8.4756,-14.51747 18.2052,-31.58947 9.7296,-17.072 17.9133,-31.22 18.1861,-31.44 0.3788,-0.3055 3.6138,-0.4 13.6959,-0.4 7.2599,0 13.2661,0.108 13.3471,0.24 0.081,0.132 -11.6458,19.86227 -26.0594,43.84502 l -26.2064,43.60506 -0.082,27.59494 -0.082,27.59498 -11.9285,0.0839 c -9.3731,0.0659 -11.9608,-0.003 -12.0789,-0.32 z M 569.28,744.30288 c -33.49856,-2.94058 -54.84032,-25.6497 -58.70678,-62.46813 -0.56452,-5.37561 -0.65392,-16.75584 -0.17066,-21.72083 1.62221,-16.66557 6.72634,-30.29354 15.37034,-41.03866 2.64364,-3.28627 7.99523,-8.32022 11.51987,-10.83616 5.88656,-4.20188 15.10515,-8.20144 22.70723,-9.85171 5.69558,-1.23638 10.23194,-1.68973 16.96,-1.69497 11.91731,-0.009 20.97923,1.95337 30.0935,6.51756 14.68948,7.35613 24.53578,20.33303 29.12874,38.39002 0.51482,2.024 0.93642,3.86 0.9369,4.08 0,0.31267 -2.53661,0.4 -11.62208,0.4 h -11.62298 l -0.88064,-2.96 c -3.48758,-11.72218 -11.30195,-20.37168 -21.89875,-24.23904 -4.52496,-1.65139 -8.57696,-2.32957 -14.13469,-2.36563 -7.24298,-0.047 -12.38672,1.10541 -18.02333,4.03789 -12.74832,6.63241 -20.82841,20.22966 -23.30041,39.21008 -0.60282,4.6286 -0.51504,16.93584 0.15548,21.80076 1.96368,14.24692 6.55245,24.65933 14.26829,32.37629 5.24871,5.24941 11.24791,8.5089 18.57997,10.09479 3.66483,0.79267 12.06198,0.79427 16.11968,0.003 14.4121,-2.81024 23.77302,-11.12055 28.36912,-25.18516 0.52317,-1.60092 0.9512,-3.11379 0.9512,-3.36192 0,-0.37993 1.84317,-0.45113 11.68,-0.45113 10.39648,0 11.68,0.0552 11.68,0.50201 0,0.2761 -0.35622,1.90736 -0.79165,3.62503 -6.47801,25.55561 -23.99901,41.18784 -50.08835,44.68886 -4.4184,0.59293 -13.06848,0.81667 -17.28,0.44698 z m 134.56,-0.0134 c -32.99504,-2.21606 -47.18045,-16.71158 -49.76176,-50.84947 -0.2377,-3.14355 -0.31978,-19.08832 -0.25453,-49.44 l 0.0963,-44.8 h 12 12 l 0.17293,47.36 c 0.18253,49.98086 0.13881,48.45613 1.5776,55.04 2.07987,9.51753 6.85081,16.11712 14.2352,19.69136 5.6648,2.74192 14.19942,3.96701 22.65427,3.25181 17.86317,-1.51098 26.22454,-10.06829 28.94003,-29.61812 0.47799,-3.44105 0.56023,-9.13283 0.71981,-49.80505 l 0.18016,-45.92 h 12 12 l 0.0968,42.08 c 0.10093,43.90182 -0.0394,50.61321 -1.23418,59.04 -3.73117,26.3152 -16.36685,39.53293 -41.26259,43.16336 -7.15219,1.04297 -16.15904,1.34349 -24.16,0.80611 z m 90.86944,-2.60557 c -0.0844,-0.22214 -0.11658,-32.3719 -0.0715,-71.4439 l 0.082,-71.04 28.64,0.008 c 20.7015,0.005 29.79309,0.12029 32.8,0.41401 18.08506,1.76653 28.40902,5.66823 35.83901,13.54439 4.83907,5.12966 7.85801,11.68371 9.33869,20.27395 0.78153,4.53418 0.78272,16.0735 0.003,20.32 -1.58557,8.62499 -4.40807,14.42944 -9.62282,19.78915 -7.3817,7.58688 -18.37146,11.75959 -35.55696,13.50061 -1.936,0.19613 -11.1152,0.43632 -20.39821,0.53379 l -16.87821,0.17722 -0.0818,27.07961 -0.0818,27.07962 -11.92854,0.0839 c -9.37172,0.0659 -11.96144,-0.003 -12.08202,-0.32 z M 854.88,667.22358 c 7.42451,-1.05062 12.66672,-3.22822 16.14518,-6.70668 2.44877,-2.4488 3.80096,-4.90624 4.86237,-8.8369 1.0129,-3.75101 1.01328,-11.59117 0,-15.68 -2.15913,-8.71914 -7.65257,-13.84259 -17.14112,-15.98659 -5.36355,-1.21194 -10.7736,-1.50234 -25.94717,-1.39277 l -13.76,0.0994 -0.0828,24.16 c -0.0455,13.288 -0.008,24.35482 0.0826,24.5929 0.13712,0.359 2.99095,0.4056 16.72276,0.27292 9.66326,-0.0934 17.62332,-0.31081 19.1174,-0.52224 z m 60.78944,74.46032 c -0.0844,-0.22214 -0.11658,-32.3719 -0.0715,-71.4439 l 0.082,-71.04 h 12 12 v 71.36 71.36 l -11.92854,0.0839 c -9.37172,0.0659 -11.96144,-0.003 -12.08202,-0.32 z m 50.57002,0.0262 c -0.0899,-0.23651 -0.1266,-32.39804 -0.0815,-71.47004 l 0.082,-71.04 19.84,-0.0958 c 26.18694,-0.1265 36.22094,0.41353 46.69954,2.51334 19.7688,3.96141 34.1431,13.28758 42.5535,27.60899 6.2746,10.68467 9.2569,23.93523 9.2667,41.17351 0.01,12.13116 -1.1912,20.75283 -4.1209,29.65596 -4.5973,13.97072 -12.9948,24.45504 -25.0586,31.28564 -9.5299,5.39584 -20.9924,8.57123 -36.5402,10.12249 -2.2306,0.22256 -13.2898,0.428 -28.07857,0.5216 -20.23971,0.12807 -24.42637,0.0811 -24.56201,-0.27565 z m 52.30584,-19.93408 c 12.4062,-1.7663 20.5958,-5.15395 27.1664,-11.23731 6.5818,-6.09373 10.6396,-14.51613 12.711,-26.3831 0.7063,-4.04624 1.0027,-18.78243 0.4709,-23.41034 -2.6895,-23.40432 -13.6827,-36.21238 -34.6857,-40.41187 -6.8424,-1.36816 -9.9464,-1.59306 -22.1279,-1.60349 l -11.52,-0.01 -0.0822,51.52 c -0.0452,28.336 -0.007,51.71735 0.0847,51.95853 0.24765,0.65059 22.8415,0.30941 27.9827,-0.42256 z"
         id="path1285" />
      <path
         style="fill:#112b3c;stroke-width:0.32"
         d="m 540.64,942.51875 c -13.39712,-1.42681 -22.41901,-4.43955 -31.36,-10.47225 -4.03264,-2.72093 -10.03344,-8.78244 -12.73152,-12.86032 -4.6359,-7.00676 -6.94141,-13.42532 -8.70189,-24.22618 l -0.19558,-1.2 h 11.83177 11.83181 l 0.50727,1.84 c 2.14963,7.79747 5.57376,13.86563 10.38528,18.40458 2.6783,2.52656 4.22156,3.60438 7.56278,5.28185 5.52054,2.77162 11.32541,3.97216 19.16176,3.96301 9.13251,-0.0106 17.49002,-2.31203 22.94915,-6.31942 5.4872,-4.02797 8.60797,-10.49741 8.16682,-16.93002 -0.48205,-7.02896 -4.52823,-12.41245 -12.20765,-16.24243 -5.18915,-2.588 -10.19021,-3.94295 -25.12,-6.80576 -6.072,-1.16435 -12.70352,-2.53373 -14.73667,-3.04314 -7.98986,-2.00176 -14.32864,-4.68131 -19.97261,-8.44288 -8.79341,-5.86061 -13.88218,-13.36733 -15.72422,-23.19571 -0.73674,-3.93107 -0.48416,-12.60995 0.4712,-16.19008 2.07683,-7.78272 7.52192,-15.12944 15.00684,-20.2479 13.69463,-9.3649 34.40247,-12.93168 53.19546,-9.16256 18.37075,3.68441 30.88467,13.92665 37.29485,30.5247 0.85459,2.21283 2.70515,8.66221 2.70515,9.42774 0,0.10231 -5.20669,0.1482 -11.57043,0.10202 l -11.57043,-0.084 -0.71965,-2.1336 c -3.67555,-10.89744 -12.69456,-17.63648 -26.05069,-19.46518 -3.87485,-0.53056 -10.28029,-0.45392 -13.95299,0.16688 -13.19402,2.2303 -21.27267,9.46048 -21.25107,19.01913 0.0157,6.98503 3.76534,12.46861 10.92937,15.98387 4.43098,2.17418 6.74787,2.78375 20.71965,5.45104 19.0631,3.63927 26.92256,5.90048 35.31978,10.1617 6.41945,3.25763 10.88684,6.80931 14.35644,11.41386 3.25396,4.3183 5.409,9.36435 6.373,14.9223 0.55036,3.17322 0.55929,11.06262 0.016,14.08 -1.39066,7.72256 -5.07904,14.68797 -10.74532,20.29232 -7.93654,7.84979 -19.99318,13.34912 -33.77356,15.40496 -3.23604,0.48278 -15.64477,0.87491 -18.4,0.58147 z m 240.32,-0.01 c -8.48042,-0.68457 -14.35613,-1.72509 -19.56739,-3.46518 -17.15847,-5.72931 -26.04723,-17.80416 -29.21565,-39.68762 -1.10077,-7.60269 -1.28525,-16.11801 -1.2912,-59.59629 L 730.88,797.76 h 12 12 v 43.76 c 0,26.45142 0.12886,45.4687 0.32461,48.08 0.63523,8.47376 1.90083,13.84192 4.52317,19.18544 1.41897,2.89142 2.03737,3.744 4.55664,6.28221 2.57619,2.59561 3.30515,3.12515 6.27481,4.55824 5.46544,2.6375 10.59651,3.6311 18.72,3.62496 21.57248,-0.0163 31.66807,-9.74528 33.7568,-32.53085 0.19853,-2.16598 0.32275,-20.72227 0.32295,-48.24 l 10e-4,-44.72 h 12.01469 12.01472 l -0.11546,47.28 c -0.11382,46.63117 -0.12502,47.34733 -0.81651,52.1871 -2.78714,19.50804 -9.02294,30.70413 -21.10288,37.88938 -6.60128,3.9265 -15.67184,6.39235 -26.76102,7.27504 -3.7554,0.29894 -14.49936,0.37056 -17.63354,0.11757 z M 650.80083,878.96 l -0.0808,-61.2 -22.48,-0.0822 -22.48,-0.0821 V 807.67782 797.76 H 662.88 720 v 9.92 9.92 h -22.36576 c -20.09946,0 -22.38544,0.0513 -22.56,0.50618 -0.10685,0.2784 -0.19424,27.8544 -0.19424,61.28 V 940.16 h -11.99917 -11.9992 z M 871.68,868.93376 v -71.22621 l 25.68,0.14727 c 27.12906,0.15558 28.86707,0.23907 38.09658,1.82982 28.28576,4.87523 45.4167,19.45789 51.76028,44.0608 2.20128,8.53734 3.04701,17.24867 2.75869,28.41456 -0.4663,18.05648 -4.17533,31.07242 -12.0823,42.4 -2.59277,3.7144 -8.80759,9.70403 -12.90432,12.43674 -11.37043,7.58454 -24.96669,11.59097 -43.54893,12.83264 -2.64,0.17638 -14.916,0.32294 -27.28,0.32566 l -22.48,0.005 z m 50.08,51.72016 c 21.71821,-2.34506 34.39155,-11.25923 39.97392,-28.11686 2.24413,-6.77674 3.0287,-11.75578 3.28662,-20.85706 0.5442,-19.20406 -3.58259,-32.87894 -12.66211,-41.95843 -6.98054,-6.98058 -16.76691,-10.96403 -30.59843,-12.45488 -5.18931,-0.55933 -25.00451,-0.8009 -25.5936,-0.312 -0.43152,0.35811 -0.4864,6.22349 -0.4864,51.98048 0,40.82515 0.0834,51.664 0.4,51.99494 0.32054,0.33504 2.5928,0.38346 11.44,0.24371 6.072,-0.0959 12.48,-0.32985 14.24,-0.5199 z m 113.76,-8.18982 c 0,-23.15735 -0.074,-27.83748 -0.4494,-28.56 -0.2472,-0.47524 -11.6807,-20.0521 -25.4079,-43.5041 l -24.95841,-42.64 h 13.70153 13.70158 l 17.6879,31.84 c 14.6374,26.34867 17.8015,31.83805 18.3463,31.82867 0.535,-0.009 4.0473,-5.95408 18.7384,-31.71657 9.944,-17.43792 18.2241,-31.76244 18.4002,-31.83232 0.1761,-0.0699 6.2623,-0.0894 13.525,-0.0434 l 13.2047,0.0836 -26.2361,43.68 -26.2361,43.68 -0.01,27.44 -0.01,27.44 h -12 -12 v -27.6959 z m -468,-168.49911 c -24.3823,-2.63414 -42.29162,-16.25366 -51.39123,-39.08157 -5.57053,-13.97465 -7.4017,-33.59209 -4.75552,-50.9463 2.55779,-16.77434 9.95123,-31.50554 20.69987,-41.24381 8.73526,-7.91417 20.07539,-13.05728 33.36688,-15.13302 5.26112,-0.82163 17.94214,-0.82951 22.88,-0.0141 7.60298,1.25536 13.59718,3.1727 19.34042,6.1863 14.5614,7.64074 24.22419,20.70375 28.48425,38.50759 0.35795,1.496 0.65184,2.9 0.65309,3.12 0.003,0.31257 -2.50051,0.4 -11.45085,0.4 h -11.45309 l -0.57411,-2.16 c -3.23577,-12.17408 -11.85398,-21.48842 -23.4303,-25.32292 -7.90883,-2.61971 -18.17632,-2.68464 -25.70864,-0.16262 -13.83629,4.63283 -23.75776,17.06026 -27.51367,34.46317 -2.0519,9.50739 -2.24412,22.36777 -0.48886,32.70237 4.1497,24.43228 19.42269,39.54838 39.98176,39.57097 11.56934,0.0128 20.44624,-3.19363 27.41472,-9.90224 4.56019,-4.39011 7.98835,-10.11033 9.87469,-16.47673 l 0.87465,-2.952 11.52183,-0.084 11.52179,-0.0839 -0.74064,3.12394 c -4.75933,20.07417 -16.82118,34.4151 -34.86704,41.4551 -3.37494,1.31664 -9.55491,2.90301 -14.08,3.61431 -3.87827,0.60963 -16.05507,0.86304 -20.16,0.41955 z m 136.32,0.1441 c -8.48042,-0.68458 -14.35613,-1.72509 -19.56739,-3.46519 -17.15847,-5.72931 -26.04723,-17.80416 -29.21565,-39.68761 -1.10077,-7.60269 -1.28525,-16.11802 -1.2912,-59.59629 l -0.006,-42 h 12 12 v 43.76 c 0,26.45142 0.12886,45.4687 0.32461,48.08 0.63523,8.47376 1.90083,13.84192 4.52317,19.18544 1.41897,2.89142 2.03737,3.744 4.55664,6.28221 2.57619,2.59561 3.30515,3.12515 6.27481,4.55824 5.46544,2.6375 10.59651,3.6311 18.72,3.62496 21.57248,-0.0163 31.66807,-9.74528 33.7568,-32.53085 0.19853,-2.16598 0.32275,-20.72227 0.32295,-48.24 l 10e-4,-44.72 h 12.01469 12.01472 l -0.11546,47.28 c -0.11382,46.63117 -0.12502,47.34733 -0.81651,52.1871 -2.78714,19.50804 -9.02294,30.70413 -21.10288,37.88938 -6.60128,3.9265 -15.67184,6.39235 -26.76102,7.27504 -3.7554,0.29894 -14.49936,0.37056 -17.63354,0.11757 z m 90.72,-73.57085 v -71.22176 l 30.16,0.12829 c 25.79779,0.10973 30.8311,0.20707 34.8,0.67299 19.54474,2.29437 31.13085,8.5577 37.30707,20.16778 3.48915,6.55894 4.9168,13.32566 4.92707,23.3534 0.009,8.99367 -1.13225,14.95216 -4.01974,20.9832 -6.06634,12.67063 -18.15597,19.4761 -39.0144,21.96186 -3.46912,0.41344 -8.41517,0.56832 -21.92,0.68646 -11.19747,0.0979 -17.58317,0.26983 -17.84,0.48023 -0.31421,0.25741 -0.4,6.08393 -0.4,27.16848 V 741.76 h -12 -12 z m 52.96,-2.69968 c 7.52368,-0.36118 11.29942,-0.92486 15.47955,-2.31098 5.44317,-1.80492 9.19373,-4.88476 11.40765,-9.36758 1.9081,-3.86358 2.2329,-5.65622 2.2321,-12.32 0,-6.77056 -0.35748,-8.68835 -2.41028,-12.96 -3.67849,-7.6545 -11.03475,-11.32656 -24.64483,-12.30218 -6.73235,-0.48262 -30.14669,-0.44732 -30.64019,0.0462 -0.2919,0.2919 -0.384,6.20317 -0.384,24.6503 v 24.26631 l 0.72,0.28941 c 0.964,0.38748 20.22512,0.39331 28.24,0.009 z m 68,2.72144 v -71.2 h 12 12 v 71.2 71.2 h -12 -12 z m 50.56,-0.0262 v -71.22621 l 25.68,0.14727 c 27.1291,0.15558 28.8671,0.23907 38.0966,1.82982 28.2857,4.87523 45.4167,19.45789 51.7603,44.0608 2.2012,8.53734 3.047,17.24867 2.7587,28.41456 -0.4664,18.05648 -4.1754,31.07242 -12.0824,42.4 -2.5927,3.7144 -8.8075,9.70403 -12.9043,12.43674 -11.3704,7.58454 -24.9667,11.59097 -43.5489,12.83264 -2.64,0.17638 -14.916,0.32294 -27.28,0.32566 l -22.48,0.005 z m 50.08,51.72016 c 21.7182,-2.34506 34.3916,-11.25923 39.9739,-28.11686 2.2441,-6.77674 3.0287,-11.75578 3.2866,-20.85706 0.5442,-19.20406 -3.5825,-32.87894 -12.6621,-41.95843 -6.9805,-6.98058 -16.7669,-10.96403 -30.5984,-12.45488 -5.1893,-0.55933 -25.00451,-0.8009 -25.5936,-0.312 -0.43152,0.35811 -0.4864,6.22349 -0.4864,51.98048 0,40.82515 0.0834,51.664 0.4,51.99494 0.32054,0.33504 2.5928,0.38346 11.44,0.24371 6.072,-0.0959 12.48,-0.32985 14.24,-0.5199 z"
         id="path1283" />
    </g>
  </g>
</svg>
