<?xml version="1.0" encoding="UTF-8" standalone="no"?>
<!-- Created with Inkscape (http://www.inkscape.org/) -->

<svg
   version="1.1"
   id="svg55"
   width="1345"
   height="257"
   viewBox="0 0 1345 257"
   sodipodi:docname="Logo_Woolcock.svg"
   inkscape:version="1.1.1 (1:1.1+202109281944+c3084ef5ed)"
   xmlns:inkscape="http://www.inkscape.org/namespaces/inkscape"
   xmlns:sodipodi="http://sodipodi.sourceforge.net/DTD/sodipodi-0.dtd"
   xmlns="http://www.w3.org/2000/svg"
   xmlns:svg="http://www.w3.org/2000/svg">
  <defs
     id="defs59" />
  <sodipodi:namedview
     id="namedview57"
     pagecolor="#00ffff"
     bordercolor="#666666"
     borderopacity="1.0"
     inkscape:pageshadow="2"
     inkscape:pageopacity="0"
     inkscape:pagecheckerboard="0"
     showgrid="false"
     inkscape:zoom="0.42862454"
     inkscape:cx="733.74241"
     inkscape:cy="247.30269"
     inkscape:window-width="1366"
     inkscape:window-height="708"
     inkscape:window-x="0"
     inkscape:window-y="0"
     inkscape:window-maximized="1"
     inkscape:current-layer="g61" />
  <g
     inkscape:groupmode="layer"
     inkscape:label="Image"
     id="g61">
    <path
       style="fill:#fefefe"
       d="m 2.9990694,255.34312 c -0.8732509,-0.99184 -1.25,-5.65207 -1.25,-15.46196 V 225.83895 H 6.7490697 11.74907 v 11.5 11.5 h 7.5 c 7.388889,0 7.5,0.0381 7.5,2.57143 0,4.6063 -1.942329,5.43211 -12.678571,5.39053 -7.1918363,-0.0278 -10.1561051,-0.41816 -11.0714296,-1.45779 z m 28.0000006,0 c -0.873251,-0.99184 -1.25,-5.65207 -1.25,-15.46196 v -14.04221 h 13 13 v 4.5 4.5 h -8 c -4.666667,0 -8,0.41667 -8,1 0,0.57143 3,1 7,1 h 7 v 5 5 h -7 c -4,0 -7,0.42857 -7,1 0,0.58333 3.333333,1 8,1 7.925926,0 8,0.0238 8,2.57143 0,4.65123 -1.908945,5.43206 -13.178571,5.39053 -7.623935,-0.0281 -10.648115,-0.40909 -11.571429,-1.45779 z m 27.053567,0.0573 c -0.950559,-1.08243 0.101705,-4.31132 5.120375,-15.71196 l 6.316808,-14.34951 4.879625,-0.2716 4.879625,-0.27159 6.290433,14.55259 c 5.532505,12.79917 6.113434,14.72959 4.821428,16.0216 -0.807952,0.80795 -2.33201,1.469 -3.386794,1.469 -2.453562,0 -8.225067,-2.85818 -8.225067,-4.07324 0,-1.62732 -8.722141,-1.09323 -9.361626,0.57324 -0.316583,0.825 -1.264728,1.5 -2.106989,1.5 -0.842262,0 -1.531385,0.45 -1.531385,1 0,1.49332 -6.315971,1.13348 -7.696433,-0.43849 z m 37.946433,0.006 c -0.870264,-1.03226 -1.25,-5.74854 -1.25,-15.52488 v -14.04221 h 10.04966 c 11.42453,0 14.89018,1.21332 17.99082,6.29855 1.45185,2.3811 1.953,5.02465 1.95578,10.31659 0.006,11.5194 -1.93497,12.90895 -19.49626,13.95713 -6.27646,0.37462 -8.2693,0.15806 -9.25,-1.00518 z m 14.83666,-7.84889 c 0.87266,-0.67001 2.14214,-2.26088 2.82107,-3.53526 1.02038,-1.91531 0.95294,-2.74663 -0.38896,-4.79463 -1.46962,-2.24293 -5.17727,-4.38831 -7.58387,-4.38831 -0.51419,0 -0.9349,3.15 -0.9349,7 0,6.60202 0.12792,6.99819 2.25,6.9682 1.2375,-0.0175 2.964,-0.58 3.83666,-1.25 z m 19.16334,7.78597 c -0.87325,-0.99184 -1.25,-5.65207 -1.25,-15.46196 v -14.04221 h 13 13 v 4.5 4.5 h -8 c -4.66667,0 -8,0.41667 -8,1 0,0.57143 3,1 7,1 h 7 v 5 5 h -7 c -4,0 -7,0.42857 -7,1 0,0.58333 3.33333,1 8,1 7.92593,0 8,0.0238 8,2.57143 0,4.65123 -1.90894,5.43206 -13.17857,5.39053 -7.62394,-0.0281 -10.64812,-0.40909 -11.57143,-1.45779 z m 30,0 c -0.87325,-0.99184 -1.25,-5.65207 -1.25,-15.46196 v -14.04221 h 11.54545 c 10.92481,0 11.67741,0.13195 14,2.45455 2.02591,2.0259 2.45455,3.43965 2.45455,8.0957 0,3.42353 -0.64202,6.72801 -1.63315,8.40586 -1.55349,2.62985 -1.52235,2.91456 0.63849,5.83724 2.06242,2.78958 2.12731,3.21686 0.70457,4.6396 -1.74319,1.74318 -7.24803,2.1234 -8.20991,0.56705 -0.33992,-0.55 -1.46604,-1 -2.50248,-1 -1.03645,0 -2.68191,-1.35 -3.65659,-3 -2.1732,-3.67893 -3.34093,-3.82873 -3.34093,-0.42857 0,4.75787 -5.74868,7.34165 -8.75,3.93274 z m 14.30887,-16.98517 c 1.68015,-1.28188 1.73946,-1.61594 0.44113,-2.48468 -0.825,-0.55203 -2.5125,-1.01059 -3.75,-1.01901 -1.73742,-0.0118 -2.25,0.55423 -2.25,2.48469 0,2.9057 2.48818,3.36181 5.55887,1.019 z m 21.94113,17.481 c -1.1,-0.47269 -3.2375,-0.89106 -4.75,-0.92971 -2.33913,-0.0598 -2.75,-0.49536 -2.75,-2.9153 0,-2.89486 2.61633,-6.15499 4.93952,-6.15499 0.70513,0 0.2197,-0.86024 -1.07874,-1.91165 -2.01107,-1.62847 -2.36078,-2.80941 -2.36078,-7.97222 0,-8.26452 2.07235,-10.36676 10.76498,-10.92027 4.2447,-0.27028 7.52128,0.10582 10.02095,1.15025 3.23781,1.35284 3.71407,1.98155 3.71407,4.90286 0,4.13101 -1.48631,5.72401 -5.45,5.84122 l -3.05,0.0902 3.08133,0.89469 c 5.11821,1.48613 6.56713,3.91033 6.22193,10.40992 -0.30153,5.67732 -0.32602,5.71771 -4.30326,7.09736 -4.43025,1.53679 -11.91092,1.74507 -15,0.41765 z m 6.50665,-8.19324 c -3.21226,-1.1883 -5.11377,-0.27694 -2.00665,0.96176 1.375,0.54816 2.91444,0.75038 3.42097,0.44938 0.50653,-0.30099 -0.12991,-0.93601 -1.41432,-1.41114 z m 1.99335,-11.80676 c -0.825,-0.53316 -1.95,-0.96937 -2.5,-0.96937 -0.55,0 -0.325,0.43621 0.5,0.96937 0.825,0.53316 1.95,0.96937 2.5,0.96937 0.55,0 0.325,-0.43621 -0.5,-0.96937 z m 31.25,19.50417 c -0.87325,-0.99184 -1.25,-5.65207 -1.25,-15.46196 v -14.04221 h 5 5 v 14.07143 c 0,10.8619 -0.32584,14.39727 -1.42857,15.5 -1.81485,1.81484 -5.69575,1.77919 -7.32143,-0.0673 z m 15,0 c -0.87325,-0.99184 -1.25,-5.65207 -1.25,-15.46196 v -14.04221 l 5.25,0.0211 c 5.24605,0.0211 5.25339,0.0257 9.75,6.04147 l 4.5,6.02035 0.29772,-6.04147 0.29771,-6.04147 h 4.95229 4.95228 v 14.07143 c 0,10.8619 -0.32584,14.39727 -1.42857,15.5 -1.64718,1.64717 -5.16483,1.89548 -6.07143,0.42857 -0.33992,-0.55 -1.60398,-1.01755 -2.80902,-1.039 -1.42397,-0.0254 -3.41624,-1.6882 -5.69098,-4.75 l -3.5,-4.711 -0.31412,4.38555 c -0.17277,2.41205 -0.92812,4.99955 -1.67857,5.75 -1.75929,1.75929 -5.65479,1.68877 -7.25731,-0.13138 z m 50,0 c -0.87325,-0.99184 -1.25,-5.65207 -1.25,-15.46196 v -14.04221 h 11.30887 c 14.23784,0 14.90274,0.40435 15.87985,9.65699 0.39745,3.76365 1.01668,8.52929 1.37605,10.5903 1.13903,6.5323 0.16577,8.1281 -5.80368,9.51594 -7.3791,1.71557 -19.90537,1.56472 -21.51109,-0.25906 z m 13.5,-6.13446 c 3.4408,-0.92209 2.6772,-2.36971 -1.25,-2.36971 -2.44444,0 -3.5,0.45238 -3.5,1.5 0,1.60967 1.18159,1.82601 4.75,0.86971 z m 0.75,-13.36971 c -0.33992,-0.55 -1.71648,-1 -3.05902,-1 -1.34254,0 -2.44098,0.45 -2.44098,1 0,0.55 1.37656,1 3.05902,1 1.7847,0 2.80156,-0.41658 2.44098,-1 z m 17.75,19.50417 c -0.87325,-0.99184 -1.25,-5.65207 -1.25,-15.46196 v -14.04221 h 11.54545 c 10.92481,0 11.67741,0.13195 14,2.45455 2.09653,2.09652 2.45455,3.39139 2.45455,8.87755 0,4.48939 -0.45157,6.79778 -1.5,7.6679 -1.99282,1.65389 -1.89779,2.54295 0.63848,5.97344 1.94155,2.62608 1.99417,3.03677 0.57143,4.45951 -1.74319,1.74318 -7.24803,2.1234 -8.20991,0.56705 -0.33992,-0.55 -1.46604,-1 -2.50248,-1 -1.03645,0 -2.68191,-1.35 -3.65659,-3 -2.1732,-3.67893 -3.34093,-3.82873 -3.34093,-0.42857 0,4.75787 -5.74868,7.34165 -8.75,3.93274 z m 14.30887,-16.98517 c 1.68015,-1.28188 1.73946,-1.61594 0.44113,-2.48468 -0.825,-0.55203 -2.5125,-1.01059 -3.75,-1.01901 -1.73742,-0.0118 -2.25,0.55423 -2.25,2.48469 0,2.9057 2.48818,3.36181 5.55887,1.019 z m 17.69113,16.98517 c -0.87325,-0.99184 -1.25,-5.65207 -1.25,-15.46196 v -14.04221 h 13 13 v 4.5 4.5 h -8 c -4.66667,0 -8,0.41667 -8,1 0,0.57143 3,1 7,1 h 7 v 5 5 h -7 c -4,0 -7,0.42857 -7,1 0,0.58333 3.33333,1 8,1 7.92593,0 8,0.0238 8,2.57143 0,4.65123 -1.90894,5.43206 -13.17857,5.39053 -7.62394,-0.0281 -10.64812,-0.40909 -11.57143,-1.45779 z m 27.91268,-0.0935 c -0.73552,-0.83228 -1.1052,-2.11811 -0.82151,-2.8574 0.28369,-0.73929 3.08567,-7.24122 6.22661,-14.44873 l 5.71081,-13.10454 h 4.72997 4.72997 l 5.57124,12.75 c 7.38928,16.91069 7.10678,15.97631 5.35879,17.7243 -2.56154,2.56154 -8.70333,1.31601 -10.96825,-2.2243 -1.16051,-1.814 -8.62332,-1.61422 -9.33868,0.25 -0.31659,0.825 -1.42746,1.5 -2.46862,1.5 -1.04115,0 -1.89301,0.45 -1.89301,1 0,1.56029 -5.34472,1.09963 -6.83732,-0.5893 z m 40.08732,0.0935 c -0.81348,-0.92395 -1.25,-4.75207 -1.25,-10.96196 v -9.54221 h -4.5 -4.5 v -4.5 -4.5 h 14 14 v 4.5 4.5 h -4.5 -4.5 v 9.57143 c 0,10.34147 -0.8858,12.46087 -5.17857,12.39053 -1.27679,-0.0209 -2.88393,-0.67692 -3.57143,-1.45779 z m 22,0 c -0.87325,-0.99184 -1.25,-5.65207 -1.25,-15.46196 v -14.04221 h 5 5 v 5.5 5.5 h 4.5 4.5 v -5.5 -5.5 h 5 5 v 14.07143 c 0,15.0068 -0.56761,16.92857 -5,16.92857 -3.14821,0 -5,-2.38088 -5,-6.42857 0,-3.56614 -0.007,-3.57143 -4.5,-3.57143 -4.49333,0 -4.5,0.005 -4.5,3.57143 0,1.96428 -0.64286,4.21428 -1.42857,5 -1.81485,1.81484 -5.69575,1.77919 -7.32143,-0.0673 z m 34,0 c -0.87325,-0.99184 -1.25,-5.65207 -1.25,-15.46196 v -14.04221 h 5 5 v 14.07143 c 0,10.8619 -0.32584,14.39727 -1.42857,15.5 -1.81485,1.81484 -5.69575,1.77919 -7.32143,-0.0673 z m 15,0 c -0.87325,-0.99184 -1.25,-5.65207 -1.25,-15.46196 v -14.04221 h 5.29208 5.29209 l 4.70791,6.14774 4.70792,6.14774 v -6.14774 -6.14774 h 5 5 v 14.07143 c 0,10.8619 -0.32584,14.39727 -1.42857,15.5 -1.64718,1.64717 -5.16483,1.89548 -6.07143,0.42857 -0.33992,-0.55 -1.4532,-1 -2.47395,-1 -1.03592,0 -3.6608,-2.26684 -5.94098,-5.13063 l -4.08507,-5.13063 v 4.70206 c 0,2.74178 -0.59557,5.29762 -1.42857,6.13063 -1.81485,1.81484 -5.69575,1.77919 -7.32143,-0.0673 z m 42.75,0.53771 c -0.825,-0.55619 -2.66916,-1.01815 -4.09813,-1.02657 -3.92591,-0.0231 -6.26782,-5.92727 -5.72604,-14.43579 0.68609,-10.7748 6.02647,-15.57641 17.32417,-15.57641 10.73916,0 15.85643,4.47089 11.94679,10.43775 -1.6167,2.4674 -1.60099,2.55914 0.4382,2.55914 1.9853,0 2.11501,0.51458 2.11501,8.39059 v 8.3906 l -3.75,0.68379 c -7.03664,1.28308 -16.7472,1.59004 -18.25,0.5769 z m 11.5746,-8.16259 c 0.29889,-0.48361 -1.05812,-0.87929 -3.01558,-0.87929 -3.54426,0 -3.55902,-0.0184 -3.55902,-4.43963 0,-4.40412 0.03,-4.44232 3.75,-4.77409 l 3.75,-0.33446 -2.70904,-1.36776 c -2.35561,-1.18932 -3.03845,-1.15192 -5.23412,0.28674 -4.70259,3.08125 -4.25115,10.12133 0.79336,12.37226 2.26226,1.00945 5.32978,0.58377 6.2244,-0.86377 z m 33.4254,8.12071 c -0.825,-0.53316 -2.5125,-0.97627 -3.75,-0.98469 -2.07194,-0.0141 -2.25,-0.47253 -2.25,-5.7928 0,-3.68464 0.5813,-6.60741 1.60471,-8.06855 0.8826,-1.26007 1.68024,-4.55817 1.77254,-7.32911 0.22548,-6.76854 2.6826,-8.82485 10.54497,-8.82485 7.60391,0 10.07778,2.16504 10.07778,8.81972 0,4.35037 0.24765,4.83528 3,5.87418 3.2321,1.21998 3.88565,3.78272 1.90736,7.4792 -0.79019,1.47648 -0.79019,2.34407 0,3.13426 3.22991,3.22991 -2.69364,8.09208 -6.76266,5.55093 -1.56231,-0.97568 -2.56656,-0.98711 -4.61766,-0.0526 -3.14654,1.4337 -9.44497,1.53985 -11.52704,0.19431 z m 47,0 c -0.825,-0.53316 -2.7375,-0.97627 -4.25,-0.98469 -2.35201,-0.0131 -2.75,-0.42705 -2.75,-2.86032 0,-2.90743 2.61895,-6.15499 4.9636,-6.15499 0.71836,0 0.12043,-0.93266 -1.32874,-2.07258 -2.30897,-1.81623 -2.63486,-2.79472 -2.63486,-7.91111 0,-5.29197 0.28801,-6.08087 3.07673,-8.42742 2.47921,-2.08612 4.126,-2.58889 8.47976,-2.58889 7.57043,0 13.44351,2.47895 13.44351,5.67432 0,4.20124 -1.76713,6.32361 -5.28518,6.34764 l -3.21482,0.022 4.09816,1.86117 c 4.55859,2.07023 5.40184,3.48998 5.40184,9.09487 0,5.34095 -0.84089,7 -3.54797,7 -1.2837,0 -2.61211,0.45 -2.95203,1 -0.79082,1.27958 -11.51999,1.27958 -13.5,0 z m 7.80248,-7.53086 c -0.29197,-0.29197 -2.05447,-0.95246 -3.91667,-1.46777 -3.09921,-0.85761 -3.2215,-0.81267 -1.44468,0.53086 1.76667,1.33585 6.60597,2.18154 5.36135,0.93691 z m 1.19752,-12.46914 c -0.825,-0.53316 -2.175,-0.96937 -3,-0.96937 -1.33333,0 -1.33333,0.1077 0,0.96937 0.825,0.53316 2.175,0.96937 3,0.96937 1.33333,0 1.33333,-0.1077 0,-0.96937 z m 15.25,19.50417 c -0.87325,-0.99184 -1.25,-5.65207 -1.25,-15.46196 v -14.04221 h 5 5 v 11.5 11.5 h 7.5 c 7.38889,0 7.5,0.0381 7.5,2.57143 0,4.6063 -1.94233,5.43211 -12.67857,5.39053 -7.19184,-0.0279 -10.15611,-0.41816 -11.07143,-1.45779 z m 28,0 c -0.87325,-0.99184 -1.25,-5.65207 -1.25,-15.46196 v -14.04221 h 13 13 v 4.5 4.5 h -8 c -4.66667,0 -8,0.41667 -8,1 0,0.57778 3.16667,1 7.5,1 h 7.5 v 5 5 h -7.5 c -4.33333,0 -7.5,0.42222 -7.5,1 0,0.58824 3.5,1 8.5,1 8.46296,0 8.5,0.0112 8.5,2.57143 0,4.69315 -1.87491,5.43202 -13.67857,5.39053 -8.05601,-0.0283 -11.14087,-0.40085 -12.07143,-1.45779 z m 30,0 c -0.87325,-0.99184 -1.25,-5.65207 -1.25,-15.46196 v -14.04221 h 13 13 v 4.5 4.5 h -8 c -4.66667,0 -8,0.41667 -8,1 0,0.57778 3.16667,1 7.5,1 h 7.5 v 5 5 h -7.5 c -4.33333,0 -7.5,0.42222 -7.5,1 0,0.58824 3.5,1 8.5,1 8.46296,0 8.5,0.0112 8.5,2.57143 0,4.69315 -1.87491,5.43202 -13.67857,5.39053 -8.05601,-0.0283 -11.14087,-0.40085 -12.07143,-1.45779 z m 30,0 c -0.87325,-0.99184 -1.25,-5.65207 -1.25,-15.46196 v -14.04221 h 11.04545 c 10.39394,0 11.19024,0.14478 13.5,2.45455 2.07054,2.07053 2.45455,3.41064 2.45455,8.56574 0,3.36115 -0.48622,7.01971 -1.08049,8.13011 -1.41271,2.63966 -6.82973,4.8496 -11.88739,4.8496 -3.4118,0 -4.03212,0.31868 -4.03212,2.07143 0,4.3098 -5.92967,6.63609 -8.75,3.43274 z m 14.4271,-17.10509 c 0.67381,-1.75592 -1.18761,-3.3598 -3.9271,-3.38377 -1.20408,-0.0105 -1.75,0.76457 -1.75,2.48469 0,2.00827 0.49791,2.5 2.53138,2.5 1.39856,0 2.80631,-0.71644 3.14572,-1.60092 z m 30.5729,17.10509 c -0.87325,-0.99184 -1.25,-5.65207 -1.25,-15.46196 v -14.04221 h 11.54545 c 10.92481,0 11.67741,0.13195 14,2.45455 2.02591,2.0259 2.45455,3.43965 2.45455,8.0957 0,3.44528 -0.64178,6.72762 -1.64872,8.43223 -1.56992,2.65765 -1.5427,2.93996 0.56948,5.90624 1.97045,2.76724 2.05089,3.28249 0.72015,4.61323 -1.68833,1.68833 -7.19699,2.02535 -8.14091,0.49805 -0.33992,-0.55 -1.3462,-1 -2.23619,-1 -0.88999,0 -2.87014,-1.4625 -4.40034,-3.25 l -2.78219,-3.25 -0.0406,2.82143 c -0.0224,1.55178 -0.6835,3.46428 -1.46921,4.25 -1.81485,1.81484 -5.69575,1.77919 -7.32143,-0.0673 z m 14.30887,-16.98517 c 1.68015,-1.28188 1.73946,-1.61594 0.44113,-2.48468 -0.825,-0.55203 -2.5125,-1.01059 -3.75,-1.01901 -1.73742,-0.0118 -2.25,0.55423 -2.25,2.48469 0,2.9057 2.48818,3.36181 5.55887,1.019 z m 17.69113,16.98517 c -0.87325,-0.99184 -1.25,-5.65207 -1.25,-15.46196 v -14.04221 h 13 13 v 4.5 4.5 h -8 c -4.66667,0 -8,0.41667 -8,1 0,0.57143 3,1 7,1 h 7 v 5 5 h -7 c -4,0 -7,0.42857 -7,1 0,0.58333 3.33333,1 8,1 7.92593,0 8,0.0238 8,2.57143 0,4.65123 -1.90894,5.43206 -13.17857,5.39053 -7.62394,-0.0281 -10.64812,-0.40909 -11.57143,-1.45779 z m 33.75,0.49583 c -0.825,-0.53316 -2.7375,-0.97627 -4.25,-0.98469 -2.35201,-0.0131 -2.75,-0.42705 -2.75,-2.86032 0,-2.81066 2.59902,-6.15499 4.78329,-6.15499 0.61919,0 0.0213,-1.10455 -1.32874,-2.45455 -3.43805,-3.43804 -3.4839,-11.23723 -0.0893,-15.18371 2.02509,-2.35431 3.28872,-2.8086 8.78593,-3.15863 4.35669,-0.27742 7.61457,0.09 10.13473,1.143 3.23781,1.35284 3.71407,1.98155 3.71407,4.90286 0,4.12757 -1.48307,5.72034 -5.45,5.85312 l -3.05,0.10209 3.33833,1.0679 c 4.67637,1.49593 6.33523,4.48023 5.96708,10.7348 -0.29824,5.06704 -0.39926,5.22133 -4.30541,6.5759 -4.61653,1.60091 -13.30642,1.83482 -15.5,0.41722 z m 6.97104,-8.03906 c -1.6103,-1.01838 -3.97104,-1.27325 -3.97104,-0.42872 0,0.74319 4.39534,2.33194 4.97104,1.79685 0.25907,-0.2408 -0.19093,-0.85646 -1,-1.36813 z m 2.02896,-11.96094 c -0.825,-0.53316 -2.175,-0.94464 -3,-0.9144 -0.98906,0.0362 -0.81874,0.34772 0.5,0.9144 2.74909,1.18132 4.32797,1.18132 2.5,0 z m 16.25,19.50417 c -0.87325,-0.99184 -1.25,-5.65207 -1.25,-15.46196 v -14.04221 h 13 13 v 4.5 4.5 h -8 c -4.66667,0 -8,0.41667 -8,1 0,0.57143 3,1 7,1 h 7 v 5 5 h -7 c -4,0 -7,0.42857 -7,1 0,0.58333 3.33333,1 8,1 7.92593,0 8,0.0238 8,2.57143 0,4.65123 -1.90894,5.43206 -13.17857,5.39053 -7.62394,-0.0281 -10.64812,-0.40909 -11.57143,-1.45779 z m 27.02593,0.0278 c -0.987,-1.1224 -0.006,-4.16545 5.06327,-15.71197 l 6.28735,-14.31996 h 4.90293 4.90294 l 6.29336,14.31186 c 5.47379,12.44805 6.10607,14.49914 4.85522,15.75 -1.62597,1.62593 -7.581,1.9701 -7.581,0.4381 0,-0.55 -0.68912,-1 -1.53138,-1 -0.84227,0 -1.79041,-0.675 -2.10699,-1.5 -0.63949,-1.66647 -9.36163,-2.20056 -9.36163,-0.57324 0,1.27664 -5.84173,4.08169 -8.40364,4.0352 -1.153,-0.0209 -2.64719,-0.66443 -3.32043,-1.43003 z m 36.97407,-0.0278 c -0.87325,-0.99184 -1.25,-5.65207 -1.25,-15.46196 v -14.04221 l 11.75,0.0318 c 12.22214,0.0331 13.88205,0.51315 16.08666,4.65246 2.31365,4.34404 1.03232,13.40677 -2.19168,15.50165 -0.6711,0.43606 -0.0639,2.07519 1.66687,4.5 2.18963,3.06759 2.42314,3.87783 1.19307,4.13977 -0.84117,0.17913 -1.27234,0.74163 -0.95815,1.25 0.3142,0.50838 -1.25529,0.92432 -3.48775,0.92432 -2.23246,0 -4.05902,-0.45 -4.05902,-1 0,-0.55 -0.88653,-1 -1.97006,-1 -1.08354,0 -2.96816,-1.35 -4.18806,-3 -2.71849,-3.67695 -3.84188,-3.80227 -3.84188,-0.42857 0,4.75787 -5.74868,7.34165 -8.75,3.93274 z m 14.29359,-16.52074 c 2.21818,-0.84335 2.464,-1.26935 1.44266,-2.5 -0.67713,-0.81589 -2.52604,-1.48343 -4.10869,-1.48343 -2.40273,0 -2.87756,0.41253 -2.87756,2.5 0,2.74289 1.30938,3.09327 5.54359,1.48343 z m 23.53455,16.56994 c -5.58603,-1.4975 -7.18953,-3.93242 -7.76532,-11.79169 -0.87993,-12.01049 5.30098,-18.76319 17.17158,-18.76013 7.83343,0.002 12.89033,2.40409 13.34063,6.33688 0.6627,5.78912 -4.7631,8.32586 -10.6193,4.96486 -2.78213,-1.59674 -3.11003,-1.59599 -5.56516,0.0127 -3.6357,2.3822 -4.40255,6.18393 -1.9205,9.52111 2.40153,3.22892 5.57333,3.85593 8.80256,1.74008 1.3239,-0.86742 3.2531,-1.57713 4.2872,-1.57713 2.5429,0 5.1902,3.11204 5.1902,6.10136 0,2.12822 -0.6819,2.6024 -5.2793,3.67125 -6.2819,1.46049 -11.6245,1.39409 -17.64259,-0.21924 z m 27.17189,-0.0492 c -0.8733,-0.99184 -1.25,-5.65207 -1.25,-15.46196 v -14.04221 h 5 5 v 5.5 5.5 h 4.5 4.5 v -5.5 -5.5 h 5 5 v 14.07143 c 0,15.0068 -0.5676,16.92857 -5,16.92857 -3.1482,0 -5,-2.38088 -5,-6.42857 0,-3.56614 -0.01,-3.57143 -4.5,-3.57143 -4.4933,0 -4.5,0.005 -4.5,3.57143 0,1.96428 -0.6429,4.21428 -1.4286,5 -1.8148,1.81484 -5.6957,1.77919 -7.3214,-0.0673 z m 113.4281,-10.75417 c -5.7502,-16.43478 -15.6781,-49.17701 -15.6781,-51.70635 0,-2.24675 0.2011,-2.30158 6.25,-1.70455 3.4375,0.33929 13.1592,1.14692 21.6038,1.79474 33.3412,2.55774 73.83,-3.36819 106.4245,-15.57626 14.0975,-5.28013 13.9666,-5.31126 27.3366,6.50113 9.5025,8.39544 11.3851,10.53046 11.3851,12.91163 0,2.60213 -0.5934,3.07839 -6.75,5.41784 -28.4757,10.82044 -118.0495,44.6845 -127.5471,48.22015 -6.4884,2.41542 -13.5164,4.39167 -15.6178,4.39167 h -3.8208 z m 179.8219,-60.84106 c -6.05,-4.39934 -19.6625,-13.67483 -30.25,-20.61219 -18.3452,-12.02051 -19.25,-12.76343 -19.25,-15.8054 0,-2.98887 8.311,-24.31208 24.9089,-63.907712 3.9001,-9.304 7.0784,-17.179 7.0628,-17.5 -0.016,-0.321 -4.6523,8.41636 -10.3038,19.41636 -9.7658,19.007972 -15.3127,28.718412 -21.8494,38.250002 -2.292,3.34213 -3.53,4.25 -5.7956,4.25 -2.7044,0 -2.9532,-0.35262 -4.057,-5.75 -7.0437,-34.443042 -11.0455,-47.709412 -17.8557,-59.192522 -2.1389,-3.60661 -4.3862,-8.35748 -4.994,-10.55748 -0.6235,-2.25701 -1.1075,-12.14391 -1.1106,-22.68948 l -0.01,-18.68949 8.25,-2.47999 c 19.2207,-5.77783 22.6693,-6.64104 26.5315,-6.64104 2.2363,0 6.3837,-0.535 9.2165,-1.18888998 3.5331,-0.81554 5.3627,-0.86263 5.8262,-0.14994 0.3717,0.57141998 1.2723,1.23023998 2.0013,1.46404998 1.2566,0.40302 20.1276,44.98385 20.1594,47.62478 0.01,0.69432 1.2416,1.25 2.7742,1.25 h 2.7591 l 9.6386,33.75 c 10.7668,37.700792 16.4928,54.367062 24.4433,71.146242 3.1346,6.61549 5.3999,12.7784 5.3999,14.69099 0,1.8121 0.45,3.57285 1,3.91277 0.55,0.33992 1,1.49148 1,2.55902 0,1.06754 -0.45,1.94098 -1,1.94098 -0.55,0 -1.0021,0.7875 -1.0046,1.75 -0.01,1.93226 -17.1912,11.28588 -20.5858,11.20387 -1.0503,-0.0254 -6.8596,-3.6456 -12.9096,-8.04493 z m -172,5.05414 c -5.5,-0.4833 -14.7893,-1.16272 -20.6428,-1.50983 l -10.6428,-0.63109 -0.5705,-2.8528 c -0.3138,-1.56904 -2.8648,-9.06653 -5.6689,-16.66108 -2.804,-7.59455 -5.3497,-16.30369 -5.657,-19.35363 l -0.5587,-5.54535 9.3704,-3.22001 c 18.404,-6.32435 43.0516,-9.44324 75.8703,-9.60059 l 18.5,-0.0887 6,3.26572 c 3.3,1.79615 10.275,6.88583 15.5,11.31041 5.225,4.42458 12.0768,9.70501 15.2263,11.73428 7.4177,4.77937 7.4732,7.21465 0.2737,11.99574 -12.1878,8.09373 -31.3566,15.86701 -48.5191,19.67537 -8.9424,1.98431 -34.0336,2.75109 -48.4809,1.48156 z m -919.22788,-7.39994 c -14.04704,-3.40378 -28.21982,-14.19651 -34.55068,-26.31075 -5.50333,-10.53075 -6.72147,-15.96906 -6.72147,-30.00757 0,-10.5907 0.3662,-13.48308 2.51906,-19.89633 3.25641,-9.700692 7.66139,-16.471942 15.31972,-23.549212 13.53951,-12.51222 33.46999,-17.38518 54.58339,-13.34552 21.13702,4.04418 38.21345,20.17196 43.04039,40.649352 1.93342,8.20218 1.93342,23.5916 0,31.79378 -4.63215,19.65103 -20.91464,35.93352 -40.56567,40.56567 -7.76112,1.82946 -26.26145,1.88479 -33.62474,0.10058 z m 29.72785,-24.18502 c 15.41417,-6.94236 24.07223,-25.06645 19.56224,-40.95001 -5.59172,-19.693232 -25.4211,-31.021732 -42.8089,-24.456662 -11.18922,4.22468 -20.28357,15.440462 -22.5266,27.781332 -3.11224,17.12323 9.68639,35.81892 27.51918,40.19882 5.1998,1.27711 11.7572,0.35265 18.25408,-2.57348 z m 109,24.03922 c -19.63081,-5.17911 -34.4385,-20.13648 -39.47838,-39.87744 -0.86733,-3.39727 -1.52162,-10.29439 -1.52162,-16.0399 0,-17.75127 4.89532,-30.537572 15.93275,-41.615482 11.7216,-11.76458 23.75692,-16.32732 43.06725,-16.32732 19.03335,0 31.07352,4.51662 42.49985,15.94295 11.20042,11.20043 15.50015,22.712452 15.50015,41.499852 0,7.17183 -0.58286,13.81757 -1.53119,17.45845 -4.86201,18.6665 -20.67375,34.11976 -39.92891,39.02364 -7.64469,1.94694 -27.05272,1.91056 -34.5399,-0.0648 z m 24.53001,-21.96717 c 29.02964,-7.56126 36.04834,-45.21222 11.7216,-62.879192 -16.84298,-12.232 -38.89926,-6.21987 -48.46486,13.210632 -2.93618,5.96422 -3.28675,7.58521 -3.28675,15.19736 0,7.11718 0.43415,9.44693 2.63517,14.14104 4.92077,10.49453 13.70524,17.90956 24.24834,20.46821 6.74475,1.63684 6.31489,1.64136 13.1465,-0.13805 z m 214.7445,22.01079 c -17.35098,-4.67328 -31.49029,-17.98516 -37.4628,-35.27052 -3.1367,-9.07807 -3.37394,-31.59647 -0.42343,-40.19044 6.20927,-18.085792 18.97112,-30.919742 36.07019,-36.274002 10.09809,-3.16203 29.98107,-3.1657 40.04153,-0.007 11.79687,3.70342 24.51173,12.38365 24.48935,16.71849 -0.0161,3.12168 -11.96079,16.562912 -14.71878,16.562912 -1.2393,0 -4.39466,-1.64411 -7.01192,-3.653572 -11.42828,-8.77434 -22.98302,-11.32402 -33.46028,-7.38338 -7.94325,2.98756 -15.02161,9.644542 -18.99988,17.868822 -2.84393,5.87926 -3.22984,7.67583 -3.26201,15.18593 -0.0327,7.64096 0.30057,9.20278 3.23763,15.1717 4.13618,8.40584 12.07706,15.92224 19.46435,18.42387 10.94268,3.70562 21.83357,1.20324 33.31523,-7.65479 6.97595,-5.38191 8.81058,-5.16956 15.72761,1.82042 7.66495,7.74576 7.74629,10.29221 0.53044,16.60447 -6.7218,5.88006 -14.89242,10.18809 -22.90481,12.07675 -8.11625,1.91313 -27.53051,1.91355 -34.63242,7.4e-4 z m 119.72549,0.0104 c -19.5049,-5.33736 -34.55846,-20.27629 -39.41581,-39.11567 -2.08531,-8.08796 -2.09195,-25.60745 -0.0127,-33.63135 5.01956,-19.371302 20.8885,-35.016772 40.42851,-39.859232 8.13113,-2.01508 28.03241,-1.72784 35.5,0.51238 17.23559,5.17054 30.69618,17.71894 36.60303,34.122542 3.01755,8.37986 3.80725,28.36915 1.48306,37.53972 -4.62161,18.23546 -16.63142,31.79623 -34.20867,38.62643 -6.06275,2.35587 -8.53581,2.71021 -20.87742,2.99132 -10.20767,0.23251 -15.48985,-0.0888 -19.5,-1.18614 z m 24.5399,-22.00423 c 8.12137,-2.08876 15.6048,-7.43408 20.34447,-14.5318 11.72161,-17.55325 5.76917,-40.91238 -12.97063,-50.900592 -16.52945,-8.81011 -35.34273,-2.09298 -44.13317,15.757372 -2.92975,5.94934 -3.28057,7.57316 -3.28057,15.18482 0,7.13955 0.43186,9.44434 2.66041,14.19825 5.74996,12.26574 16.99724,20.30531 30.37949,21.71528 0.57195,0.0603 3.72195,-0.58023 7,-1.42333 z m 109.9601,21.64089 c -9.58459,-2.79475 -16.51129,-6.90987 -23.5626,-13.99842 -11.88264,-11.9454 -16.62702,-25.73114 -15.66104,-45.50623 0.78575,-16.08553 4.55705,-25.874072 13.92659,-36.146952 6.73078,-7.37973 15.28604,-12.92451 24.25552,-15.72035 8.4989,-2.64916 28.53736,-3.11027 37.54153,-0.86388 11.37241,2.83723 27.01143,12.952 26.98935,17.45576 -0.0157,3.20754 -11.90276,16.672082 -14.71878,16.672082 -1.2393,0 -4.39466,-1.64411 -7.01192,-3.653572 -7.06777,-5.42645 -14.85283,-8.69728 -21.75865,-9.14171 -14.74819,-0.94913 -28.32921,9.83035 -33.04224,26.226182 -5.21496,18.14194 6.65791,38.30967 25.37621,43.10508 9.56953,2.4516 18.68081,-0.19683 29.7584,-8.65004 6.94871,-5.30249 8.78809,-5.08055 15.68893,1.89306 7.56701,7.6468 7.69937,10.25487 0.83366,16.42773 -6.32926,5.69055 -15.17158,10.35916 -23.20803,12.25349 -8.92274,2.10324 -27.62393,1.9172 -35.40693,-0.35223 z M 34.237792,180.58895 C 21.389528,144.78067 1.7490694,85.902228 1.7490694,83.193798 c 0,-1.99254 -0.5122185,-5.33244 -1.13826337,-7.422 -1.79410273,-5.98818 -0.1570689,-6.93285 12.01400997,-6.93285 H 22.64342 l 9.11195,28.25 c 5.011573,15.537502 10.041036,31.175002 11.176586,34.750002 1.135549,3.575 2.355627,6.82418 2.711283,7.22041 0.355656,0.39622 5.965038,-15.2561 12.465294,-34.78293 l 11.818646,-35.503342 10.577742,0.28293 10.577743,0.28293 11.329646,34.000002 c 6.2313,18.7 11.58779,34.675 11.90331,35.5 0.46349,1.21194 18.5052,-51.985042 22.46863,-66.250002 l 1.04191,-3.75 h 12.46145 12.46146 v 2.75714 c 0,1.51643 -8.325,26.77715 -18.5,56.134942 -10.175,29.35778 -18.5,53.54207 -18.5,53.74285 0,0.20079 -4.89698,0.36507 -10.88217,0.36507 h -10.88217 l -7.807293,-22.75 c -4.29401,-12.5125 -9.679653,-28.09543 -11.968096,-34.62872 l -4.160805,-11.87872 -4.004538,11.37872 c -2.202496,6.25829 -7.557376,21.83651 -11.899733,34.61826 l -7.895195,23.23954 -10.781385,0.0105 c -7.727128,0.007 -10.908443,-0.34365 -11.229893,-1.23954 z m 426.511278,-55.75 V 68.838948 h 12 12 v 45.000002 45 h 28.5 28.5 v 11 11 h -40.5 -40.5 z m 479,0 V 68.838948 h 11.98253 11.98253 l 0.26747,24.36088 0.26747,24.360872 23,-24.340222 23.00003,-24.34022 14.25,-0.0207 14.25,-0.0206 v 2.60536 c 0,2.04186 -4.542,7.2557 -21,24.10644 -11.55,11.825602 -21.00003,21.924242 -21.00003,22.441422 0,0.51719 9.90003,13.83498 22.00003,29.59509 13.9744,18.20148 22,29.49322 22,30.95321 0,2.29085 -0.047,2.29845 -14.25,2.28969 l -14.25,-0.009 -17.00003,-22.44535 -17,-22.44536 -7.25,7.17912 -7.25,7.17911 v 15.27503 15.27503 h -12 -12 v -56 z m 298.81253,12.56524 c -3.1281,-1.88629 -9.6531,-6.09025 -14.5,-9.34214 -9.829,-6.59449 -30.2766,-17.93722 -37.5588,-20.83465 -4.5962,-1.82875 -4.8768,-2.18584 -8.8763,-11.295292 -8.074,-18.39004 -22.8774,-62.59 -22.8774,-68.30722 0,-2.40568 0.3733,-2.53153 13.75,-4.63525 21.059,-3.3119 20.6068,-3.38528 28.3475,4.59931 17.7628,18.32242 33.3608,40.41303 40.5182,57.38398 3.4469,8.17289 11.3843,44.505292 11.3843,52.110152 0,3.22907 -0.3156,3.75551 -2.25,3.7533 -1.2375,-0.001 -4.8094,-1.5459 -7.9375,-3.43219 z m -147.2726,-6.81524 c -4.172,-13.12533 -11.1016,-32.321632 -15.7931,-43.750002 -3.2739,-7.975 -6.1785,-16.1875 -6.4547,-18.25 -0.4656,-3.47687 -0.318,-3.75 2.0259,-3.75 4.7723,0 81.5397,36.929322 102.9918,49.544692 6.966,4.09651 7.7763,4.88159 7.5,7.26639 -0.2838,2.44955 -0.8547,2.77134 -6.8098,3.8389 -8.4212,1.50964 -36.7099,4.0532 -59.3609,5.3374 -22.6191,1.28238 -23.6193,1.27253 -24.0992,-0.23738 z m 22.1714,-54.015312 c -45.6341,-20.79704 -48.77,-22.38849 -48.5,-24.61334 0.2653,-2.18558 1.9121,-2.8543 20.2887,-8.23841 27.9404,-8.18618 50.9046,-13.88294 55.9637,-13.88294 h 4.2886 l 4.0008,9.75 c 6.3767,15.54006 18.2469,52.85594 18.2469,57.36187 0,1.39682 -0.7156,1.88415 -2.75,1.87282 -1.5125,-0.008 -24.7049,-10.02092 -51.5387,-22.25 z m 102.8392,-34.91843 c -1.0343,-1.75106 -5.1814,-6.63857 -9.2156,-10.86112 -5.0897,-5.32733 -7.3349,-8.43878 -7.3349,-10.1648 0,-2.27393 0.708,-2.67322 8.25,-4.65238 12.6408,-3.31721 12.3121,-3.44753 13.6284,5.40289 0.6169,4.14747 1.1216,11.12247 1.1216,15.5 0,7.62277 -0.097,7.95915 -2.2844,7.95915 -1.507,0 -2.9244,-1.0834 -4.1651,-3.18374 z"
       id="path364" />
  </g>
</svg>
